<svg width="299" height="298" viewBox="0 0 299 298" fill="none" xmlns="http://www.w3.org/2000/svg">
<path d="M14.7351 172.65L2.25814 174.407L0.802974 164.069L3.8331 163.642L4.81158 170.594L6.50489 170.355L5.62677 164.117L8.6569 163.69L9.53502 169.929L11.2283 169.69L10.2248 162.561L13.2549 162.134L14.7351 172.65Z" fill="#898987"/>
<path d="M6.52291 141.613L12.9402 137.095L12.8346 141.234L9.2592 143.754L12.7015 146.452L12.5959 150.591L6.41731 145.752L0 150.27L0.105591 146.131L3.68102 143.611L0.238727 140.913L0.344318 136.774L6.52291 141.613Z" fill="#898987"/>
<path d="M15.7887 120.904C14.9146 125.428 12.3915 127.195 8.04386 126.355C3.69626 125.515 1.98583 123.077 2.80191 118.853C3.55312 114.965 5.25241 113.001 8.53961 113.637L7.92499 116.818C6.75856 116.592 6.16788 118.037 5.89471 119.45C5.49862 121.5 6.35917 122.455 8.69203 122.906C11.0602 123.363 12.2691 122.515 12.6925 120.324C12.9315 119.087 13.0462 117.734 11.8798 117.508L12.4944 114.327C15.7816 114.962 16.4545 117.457 15.7887 120.904Z" fill="#898987"/>
<path d="M20.8766 102.005L9.06751 97.6115L10.2601 94.4062L19.2013 97.7329L21.5865 91.3223L24.4544 92.3894L20.8766 102.005Z" fill="#898987"/>
<path d="M28.8489 78.2511C29.6022 76.9401 29.4552 75.8592 28.2066 75.1417L21.6049 71.3483L23.3089 68.3829L29.3955 71.8805C33.2972 74.1225 33.5261 76.4338 31.5801 79.8205C29.634 83.2072 27.5218 84.1733 23.6201 81.9313L17.5334 78.4338L19.2374 75.4685L25.8391 79.2619C27.0876 79.9794 28.0955 79.5621 28.8489 78.2511Z" fill="#898987"/>
<path d="M40.3636 58.7803C38.2171 60.7447 36.2239 61.6707 34.1362 59.9585C31.798 58.0409 32.0208 55.8957 34.5777 52.7781C36.8035 50.0641 39.0362 49.1016 41.4857 51.1106L39.4311 53.6158C38.6517 52.9766 37.7324 53.8988 36.8079 55.0262C35.9632 56.0561 35.7357 56.7309 36.1532 57.0733C36.5708 57.4157 37.0095 56.9375 38.7554 55.3197C41.0527 53.1998 43.0916 52.2181 45.3046 54.033C47.5175 55.8479 47.2718 58.0209 44.6807 61.1803C42.4206 63.936 40.1651 64.9263 37.7156 62.9174L39.7702 60.4121C40.5496 61.0514 41.5031 60.0874 42.4619 58.9183C43.3409 57.8466 43.6493 57.215 43.2179 56.8612C42.6751 56.416 41.6542 57.604 40.3636 58.7803Z" fill="#898987"/>
<path d="M58.5063 46.5469L50.2117 37.0621L52.7862 34.8107L61.0807 44.2955L58.5063 46.5469Z" fill="#898987"/>
<path d="M76.9662 17.938L79.8036 30.9946L76.6946 32.9145L66.2915 24.5299L69.4004 22.61L75.533 27.539L73.8572 19.8578L76.9662 17.938Z" fill="#898987"/>
<path d="M93.3082 23.9532L88.5427 12.2892L98.2073 8.34067L99.3646 11.1734L92.866 13.8284L93.5127 15.4114L99.3448 13.0287L100.502 15.8614L94.6701 18.2441L95.3168 19.8271L101.982 17.104L103.139 19.9367L93.3082 23.9532Z" fill="#898987"/>
<path d="M164.261 13.1799C159.68 12.6824 157.71 10.3139 158.188 5.91175C158.666 1.50963 160.955 -0.396345 165.232 0.0681441C169.169 0.495707 171.266 2.02706 170.904 5.35549L167.683 5.00567C167.811 3.82461 166.323 3.35521 164.892 3.19973C162.816 2.97429 161.936 3.91072 161.679 6.27283C161.419 8.67073 162.364 9.8054 164.583 10.0464C165.835 10.1824 167.193 10.185 167.321 9.00398L170.542 9.3538C170.181 12.6822 167.75 13.5589 164.261 13.1799Z" fill="#898987"/>
<path d="M182.509 9.60839C183.676 5.44899 186.312 3.85153 190.523 5.03308C194.735 6.21463 196.155 8.94988 194.988 13.1093C193.821 17.2687 191.185 18.8661 186.974 17.6846C182.762 16.503 181.342 13.7678 182.509 9.60839ZM185.889 10.5565C185.276 12.7402 185.884 14.1071 187.825 14.6517C189.766 15.1963 190.995 14.3448 191.608 12.1611C192.221 9.97743 191.613 8.61056 189.672 8.06597C187.558 7.47277 186.502 8.37286 185.889 10.5565Z" fill="#898987"/>
<path d="M203.03 23.0559L208.384 11.65L211.48 13.1033L212.957 21.3927L215.879 15.1684L218.975 16.6216L213.621 28.0275L210.525 26.5743L209.047 18.2848L206.126 24.5092L203.03 23.0559Z" fill="#898987"/>
<path d="M225.737 35.5495L231.156 27.6986L228.194 25.6534L229.932 23.1351L238.672 29.1686L236.933 31.6868L233.971 29.6416L228.551 37.4925L225.737 35.5495Z" fill="#898987"/>
<path d="M241.227 47.6859L249.995 38.6364L254.132 42.6444C257.131 45.5502 257.048 47.5246 255.069 49.5672C253.528 51.1573 251.995 51.6016 249.989 50.3604L249.307 55.5139L246.334 52.6332L246.982 47.7476L246.439 47.2215L243.684 50.0656L241.227 47.6859ZM248.568 45.0238L250.158 46.5643C251.516 47.8795 251.972 47.7195 252.548 47.1248C253.124 46.5301 253.269 46.0696 251.912 44.7545L250.322 43.2139L248.568 45.0238Z" fill="#898987"/>
<path d="M258.36 66.6243L268.497 59.1413L270.528 61.8929L260.391 69.3758L258.36 66.6243Z" fill="#898987"/>
<path d="M268.773 82.5906L280.003 76.8783L282.843 82.4616C284.638 85.9912 283.916 87.5096 281.622 88.6765C280.884 89.0519 280.16 89.1374 279.443 88.9975C279.24 90.0293 278.626 90.8063 277.615 91.3204C275.305 92.4955 273.546 91.9763 271.669 88.2862L268.773 82.5906ZM277.302 82.0892L278.477 84.3995C279.089 85.6028 279.501 85.8173 280.031 85.548C280.544 85.2868 280.597 84.7954 279.985 83.5921L278.826 81.3139L277.302 82.0892ZM273.05 84.2517L274.397 86.8989C275.05 88.1824 275.511 88.453 276.024 88.1918C276.521 87.9389 276.59 87.4393 275.937 86.1558L274.575 83.4764L273.05 84.2517Z" fill="#898987"/>
<path d="M282.437 107.664C282.891 109.106 283.786 109.73 285.159 109.297L292.421 107.01L293.449 110.272L286.753 112.381C282.461 113.733 280.606 112.336 279.432 108.611C278.258 104.885 278.978 102.677 283.27 101.325L289.966 99.2153L290.993 102.477L283.731 104.765C282.358 105.198 281.982 106.222 282.437 107.664Z" fill="#898987"/>
<path d="M284.189 128.341L293.636 127.011L293.134 123.446L296.165 123.02L297.645 133.536L294.615 133.962L294.113 130.398L284.666 131.727L284.189 128.341Z" fill="#898987"/>
<path d="M292.085 146.758C296.403 146.869 298.599 149.031 298.487 153.404C298.376 157.776 296.073 159.824 291.754 159.714C287.436 159.604 285.24 157.441 285.352 153.069C285.463 148.696 287.766 146.648 292.085 146.758ZM291.995 150.267C289.728 150.209 288.552 151.134 288.5 153.149C288.449 155.164 289.576 156.148 291.844 156.205C294.111 156.263 295.287 155.339 295.338 153.324C295.394 151.128 294.262 150.325 291.995 150.267Z" fill="#898987"/>
<path d="M283.991 170.443L296.362 172.833L295.27 178.489C294.477 182.589 292.779 183.599 289.987 183.059C287.813 182.639 286.602 181.599 286.544 179.241L281.857 181.489L282.642 177.424L287.087 175.294L287.23 174.552L283.342 173.801L283.991 170.443ZM290.235 175.133L289.815 177.306C289.456 179.162 289.84 179.456 290.652 179.613C291.465 179.77 291.931 179.64 292.289 177.784L292.709 175.611L290.235 175.133Z" fill="#898987"/>
<path d="M258.857 235.333L260.249 236.474L257.281 240.093L255.889 238.951L258.857 235.333Z" fill="#898987"/>
<path d="M225.676 261.772L232.297 272.493L227.779 275.283C224.057 277.581 221.14 276.865 218.955 273.327C216.77 269.79 217.437 266.861 221.158 264.562L225.676 261.772ZM224.374 266.173L222.766 267.166C221.051 268.225 220.816 269.661 221.951 271.499C223.067 273.306 224.455 273.739 226.171 272.679L227.779 271.686L224.374 266.173Z" fill="#898987"/>
<path d="M205.076 273.196L209.841 284.86L200.176 288.808L199.019 285.976L205.518 283.321L204.871 281.738L199.039 284.12L197.882 281.288L203.714 278.905L203.067 277.322L196.402 280.045L195.244 277.212L205.076 273.196Z" fill="#898987"/>
<path d="M179.92 286.278C182.82 286.047 184.962 286.54 185.558 289.174C186.225 292.123 184.732 293.679 180.799 294.569C177.376 295.343 175.023 294.732 174.324 291.642L177.484 290.927C177.706 291.91 178.998 291.747 180.42 291.425C181.719 291.131 182.313 290.738 182.194 290.212C182.075 289.685 181.435 289.793 179.064 289.997C175.949 290.259 173.737 289.781 173.105 286.99C172.473 284.198 174.002 282.635 177.987 281.733C181.463 280.946 183.852 281.55 184.551 284.64L181.391 285.355C181.168 284.372 179.824 284.547 178.349 284.881C176.997 285.187 176.366 285.495 176.489 286.04C176.644 286.724 178.179 286.414 179.92 286.278Z" fill="#898987"/>
<path d="M158.089 284.789L158.809 297.368L155.394 297.564L154.675 284.984L158.089 284.789Z" fill="#898987"/>
<path d="M134.081 283.965C137.356 284.32 139.183 286.673 138.705 291.075C138.227 295.477 135.937 297.383 131.661 296.919C127.724 296.491 125.627 294.96 125.988 291.632L129.209 291.981C129.081 293.162 130.569 293.632 132.001 293.787C134.076 294.013 134.957 293.076 135.213 290.714C135.474 288.316 134.529 287.182 132.775 286.991C131.809 286.886 130.979 287.357 130.269 288.059L132.953 288.35L132.642 291.214L126.021 290.494L126.787 283.444L130.008 283.794L129.802 285.691C131.032 284.539 132.489 283.792 134.081 283.965Z" fill="#898987"/>
<path d="M116.748 281.243L113.344 293.374L110.052 292.45L107.23 284.517L105.372 291.138L102.079 290.214L105.483 278.082L108.776 279.006L111.598 286.939L113.455 280.319L116.748 281.243Z" fill="#898987"/>
<path d="M95.3541 274.093L90.0001 285.499L80.5495 281.063L81.8498 278.293L88.2045 281.276L88.9311 279.728L83.2282 277.051L84.5284 274.281L90.2314 276.958L90.958 275.41L84.4403 272.35L85.7406 269.58L95.3541 274.093Z" fill="#898987"/>
<path d="M75.0173 263.236L67.8589 273.605L63.1188 270.332C59.6821 267.96 59.4394 265.999 61.0551 263.658C62.3129 261.836 63.7521 261.146 65.9345 262.04L65.7591 256.844L69.1661 259.196L69.3309 264.122L69.953 264.552L72.2028 261.293L75.0173 263.236ZM68.2146 267.07L66.3926 265.812C64.8372 264.738 64.414 264.971 63.9436 265.652C63.4732 266.334 63.4055 266.812 64.9609 267.886L66.7829 269.144L68.2146 267.07Z" fill="#898987"/>
<path d="M38.1671 233.586L36.7189 234.655L33.9396 230.89L35.3877 229.821L38.1671 233.586Z" fill="#898987"/>
</svg>
