<svg width="16" height="10" viewBox="0 0 16 10" fill="none" xmlns="http://www.w3.org/2000/svg">
<path fill-rule="evenodd" clip-rule="evenodd" d="M9.0599 9.06C8.77865 9.3409 8.3974 9.49868 7.9999 9.49868C7.6024 9.49868 7.22115 9.3409 6.9399 9.06L1.2819 3.404C1.00064 3.12261 0.84268 2.741 0.842773 2.34315C0.842867 1.94529 1.00101 1.56376 1.2824 1.2825C1.56379 1.00124 1.9454 0.843279 2.34325 0.843372C2.74111 0.843466 3.12264 1.0016 3.4039 1.283L7.9999 5.879L12.5959 1.283C12.8787 1.00963 13.2575 0.858254 13.6508 0.861485C14.0441 0.864716 14.4204 1.02229 14.6986 1.30027C14.9769 1.57826 15.1348 1.9544 15.1384 2.3477C15.142 2.74099 14.991 3.11997 14.7179 3.403L9.0609 9.061L9.0599 9.06Z" fill="#898987"/>
</svg>
