<svg width="40" height="40" viewBox="0 0 40 40" fill="none" xmlns="http://www.w3.org/2000/svg">
<rect width="40" height="40" rx="20" fill="black"/>
<path d="M17.952 28.398C17.43 28.398 16.9356 28.1544 16.6188 27.7344L12.3312 22.0692C12.1986 21.8943 12.1018 21.6949 12.0464 21.4825C11.9909 21.2702 11.9779 21.0489 12.008 20.8315C12.038 20.6141 12.1107 20.4047 12.2218 20.2154C12.3328 20.026 12.4801 19.8604 12.6552 19.728C12.8302 19.5951 13.0298 19.498 13.2424 19.4424C13.455 19.3867 13.6765 19.3735 13.8942 19.4036C14.112 19.4337 14.3216 19.5065 14.5111 19.6178C14.7007 19.729 14.8664 19.8766 14.9988 20.052L17.82 23.7768L24.9132 12.3864C25.1484 12.0104 25.5232 11.7429 25.9554 11.6428C26.3875 11.5427 26.8417 11.6181 27.2184 11.8524C28.002 12.3396 28.2432 13.3716 27.7536 14.1564L19.3728 27.6084C19.2297 27.8391 19.0325 28.0314 18.7983 28.1686C18.5641 28.3057 18.3 28.3837 18.0288 28.3956C18.0024 28.398 17.9784 28.398 17.952 28.398Z" fill="#FFB900"/>
</svg>
