<svg width="40" height="40" viewBox="0 0 40 40" fill="none" xmlns="http://www.w3.org/2000/svg">
<g clip-path="url(#clip0_316_7529)">
<path d="M18.1053 30.1053C18.1053 30.6078 18.3049 31.0897 18.6602 31.445C19.0156 31.8004 19.4975 32 20 32C20.5025 32 20.9844 31.8004 21.3398 31.445C21.6951 31.0897 21.8947 30.6078 21.8947 30.1053V21.8947H30.1053C30.6078 21.8947 31.0897 21.6951 31.445 21.3398C31.8004 20.9844 32 20.5025 32 20C32 19.4975 31.8004 19.0156 31.445 18.6602C31.0897 18.3049 30.6078 18.1053 30.1053 18.1053H21.8947V9.89474C21.8947 9.39222 21.6951 8.91029 21.3398 8.55496C20.9844 8.19962 20.5025 8 20 8C19.4975 8 19.0156 8.19962 18.6602 8.55496C18.3049 8.91029 18.1053 9.39222 18.1053 9.89474V18.1053H9.89474C9.39222 18.1053 8.91029 18.3049 8.55496 18.6602C8.19962 19.0156 8 19.4975 8 20C8 20.5025 8.19962 20.9844 8.55496 21.3398C8.91029 21.6951 9.39222 21.8947 9.89474 21.8947H18.1053V30.1053Z" fill="black"/>
</g>
<rect x="2" y="2" width="36" height="36" rx="18" stroke="black" stroke-width="4"/>
<defs>
<clipPath id="clip0_316_7529">
<rect width="40" height="40" rx="20" fill="white"/>
</clipPath>
</defs>
</svg>
