<svg xmlns="http://www.w3.org/2000/svg" xmlns:xlink="http://www.w3.org/1999/xlink" width="30" height="43" viewBox="0 0 30 43">
  <defs>
    <clipPath id="clip-Artboard_4">
      <rect width="30" height="43"/>
    </clipPath>
  </defs>
  <g id="Artboard_4" data-name="Artboard – 4" clip-path="url(#clip-Artboard_4)">
    <rect id="Rectangle_3" data-name="Rectangle 3" width="1826" height="737"/>
    <path id="Rectangle_22" data-name="Rectangle 22" d="M1825.5,59.42V718.5A17.5,17.5,0,0,1,1808,736H1656.46a17.5,17.5,0,0,1-12.38-5.126l-80.45-80.455A18.513,18.513,0,0,0,1550.54,645H18A17.5,17.5,0,0,1,.5,627.5V18A17.5,17.5,0,0,1,18,.5H292.49a17.5,17.5,0,0,1,12.438,5.189l30.434,30.746A18.5,18.5,0,0,0,348.51,41.92H1808A17.5,17.5,0,0,1,1825.5,59.42Z" fill="none" stroke="#fff" stroke-width="1"/>
  </g>
</svg>
