<svg xmlns="http://www.w3.org/2000/svg" xmlns:xlink="http://www.w3.org/1999/xlink" width="25" height="25" viewBox="0 0 25 25">
  <defs>
    <clipPath id="clip-path">
      <rect id="Rectangle_124" data-name="Rectangle 124" width="25" height="25" transform="translate(2743 -1592.981)" fill="#fff"/>
    </clipPath>
    <clipPath id="clip-path-2">
      <rect id="Rectangle_126" data-name="Rectangle 126" width="25" height="25" transform="translate(0 -0.017)"/>
    </clipPath>
  </defs>
  <g id="Group_14" data-name="Group 14" transform="translate(-2743 1593)">
    <g id="Mask_Group_25" data-name="Mask Group 25" transform="translate(0 -0.019)" clip-path="url(#clip-path)">
      <g id="Artboard_4" data-name="Artboard – 4" transform="translate(2743 -1592.964)" clip-path="url(#clip-path-2)">
        <rect id="Rectangle_125" data-name="Rectangle 125" width="25" height="25" transform="translate(0 -0.017)"/>
        <path id="Rectangle_22" data-name="Rectangle 22" d="M1825.5,59.465V719.05a17.507,17.507,0,0,1-17.5,17.513H1656.46a17.493,17.493,0,0,1-12.38-5.13l-80.45-80.517a18.506,18.506,0,0,0-13.09-5.423H18A17.507,17.507,0,0,1,.5,627.98V18.013A17.507,17.507,0,0,1,18,.5H292.49a17.494,17.494,0,0,1,12.438,5.193l30.434,30.769a18.493,18.493,0,0,0,13.148,5.489H1808A17.507,17.507,0,0,1,1825.5,59.465Z" transform="translate(-1801 -41.467)" fill="none" stroke="#fff" stroke-width="1"/>
      </g>
    </g>
  </g>
</svg>
