<svg xmlns="http://www.w3.org/2000/svg" xmlns:xlink="http://www.w3.org/1999/xlink" width="100" height="100" viewBox="0 0 100 100">
  <defs>
    <clipPath id="clip-Artboard_1">
      <rect width="100" height="100"/>
    </clipPath>
  </defs>
  <g id="Artboard_1" data-name="Artboard – 1" clip-path="url(#clip-Artboard_1)">
    <path id="Subtraction_1" data-name="Subtraction 1" d="M-3592-5945h-23.979a23.843,23.843,0,0,0,9.321-1.886,23.92,23.92,0,0,0,7.628-5.144,23.916,23.916,0,0,0,5.144-7.628A23.847,23.847,0,0,0-3592-5969v24Zm-308.313,0H-3923v-17.126a23.878,23.878,0,0,0,3.313,6.854,24.09,24.09,0,0,0,5.221,5.422,23.9,23.9,0,0,0,6.7,3.566,23.957,23.957,0,0,0,7.449,1.281ZM-3592-6410.126h0a23.878,23.878,0,0,0-1.825-8.873,23.88,23.88,0,0,0-5.2-7.786l-70.187-70.186a23.893,23.893,0,0,0-7.786-5.2,23.878,23.878,0,0,0-9.185-1.827H-3592Zm-331-76.755h0V-6504h22.974a23.957,23.957,0,0,0-7.735,1.283,23.891,23.891,0,0,0-6.7,3.566,24.09,24.09,0,0,0-5.221,5.422A23.87,23.87,0,0,0-3923-6486.881Z" transform="translate(3692 6504)"/>
  </g>
</svg>
