<svg width="5" height="8" viewBox="0 0 5 8" fill="none" xmlns="http://www.w3.org/2000/svg"><path fill-rule="evenodd" clip-rule="evenodd" d="M0.293202 0.464997C0.105731 0.652525 0.000415865 0.906833 0.000415865 1.172C0.000415865 1.43716 0.105731 1.69147 0.293202 1.879L2.4142 4L0.293202 6.121C0.105562 6.30851 9.3828e-05 6.56287 6.25745e-08 6.82814C-9.37028e-05 7.09341 0.105194 7.34786 0.292702 7.5355C0.48021 7.72314 0.734578 7.82861 0.999848 7.8287C1.26512 7.82879 1.51956 7.72351 1.7072 7.536L4.5362 4.707C4.72367 4.51947 4.82899 4.26516 4.82899 4C4.82899 3.73483 4.72367 3.48053 4.5362 3.293L1.7072 0.464997C1.51967 0.277526 1.26537 0.172211 1.0002 0.172211C0.735038 0.172211 0.48073 0.277526 0.293202 0.464997Z" fill="#777777"/></svg>