<svg xmlns="http://www.w3.org/2000/svg" width="124.521" height="32.007" viewBox="0 0 124.521 32.007">
  <g id="_1.2" data-name="1.2" transform="translate(-12.997 -6)">
    <path id="Path_8" data-name="Path 8" d="M129.674,12.528a8.684,8.684,0,0,1,4.16.928,6.482,6.482,0,0,1,2.72,2.688,8.92,8.92,0,0,1,.96,4.32v2.3H126.25a4.572,4.572,0,0,0,1.184,3.168,4.281,4.281,0,0,0,3.168,1.152,13.58,13.58,0,0,0,3.072-.32,15.558,15.558,0,0,0,2.848-1.056v3.68a10.774,10.774,0,0,1-2.72.928,15.7,15.7,0,0,1-3.424.32,10.673,10.673,0,0,1-4.64-.96A7.35,7.35,0,0,1,122.57,26.7a9.821,9.821,0,0,1-1.152-4.992,11.188,11.188,0,0,1,1.024-5.088,7.131,7.131,0,0,1,2.912-3.072,8.8,8.8,0,0,1,4.32-1.02Zm.032,3.392a3.188,3.188,0,0,0-2.3.9,4.346,4.346,0,0,0-1.056,2.78h6.688a4.456,4.456,0,0,0-.384-1.888,2.857,2.857,0,0,0-1.088-1.312,3.333,3.333,0,0,0-1.86-.48Zm5.024-8.288v3.3H124.138v-3.3Z" fill="#fff"/>
    <path id="Path_9" data-name="Path 9" d="M118.036,38a6.1,6.1,0,0,1-3.136-.7,4,4,0,0,1-1.664-1.984,7.715,7.715,0,0,1-.512-2.944V6h4.768V32.272a2.064,2.064,0,0,0,.448,1.408,1.569,1.569,0,0,0,1.248.512,3.88,3.88,0,0,0,.928-.1q.384-.1.832-.224V37.52a4.031,4.031,0,0,1-1.312.352A9.733,9.733,0,0,1,118.036,38Z" fill="#fff"/>
    <path id="Path_10" data-name="Path 10" d="M93.513,29.36a7.431,7.431,0,0,0-.992-.16,7.99,7.99,0,0,0-1.248-.1,1.862,1.862,0,0,0-1.472.544,1.757,1.757,0,0,0-.48,1.248,3.482,3.482,0,0,0,.1.9q.128.384.224.64h-3.78a3.971,3.971,0,0,1-.256-.768,4.232,4.232,0,0,1-.128-1.088,6.29,6.29,0,0,1,.544-2.656A4.21,4.21,0,0,1,87.913,26a8.277,8.277,0,0,1,4.672-.64,6.3,6.3,0,0,1,.928.16Zm8.672-16.832a5.793,5.793,0,0,1,4.768,2.3q1.824,2.272,1.824,6.72a10.757,10.757,0,0,1-1.024,4.864,7.512,7.512,0,0,1-2.784,3.136,7.628,7.628,0,0,1-4.1,1.088,8.177,8.177,0,0,1-1.984-.224q-.864-.192-1.76-.448a12.562,12.562,0,0,1,.064,1.312q.032.7.032,1.344V38H92.457V12.848h3.872L97,15.12h.224a6.522,6.522,0,0,1,1.152-1.28,5,5,0,0,1,1.6-.96,6.389,6.389,0,0,1,2.209-.352Zm-1.536,3.808a3,3,0,0,0-2.656,1.152,6.43,6.43,0,0,0-.768,3.52V26.1a8.908,8.908,0,0,0,.992.352,9.5,9.5,0,0,0,1.12.256,10.746,10.746,0,0,0,1.12.064,3.267,3.267,0,0,0,1.856-.512A3.232,3.232,0,0,0,103.5,24.6a9.55,9.55,0,0,0,.416-3.1,7.353,7.353,0,0,0-.8-3.84,2.64,2.64,0,0,0-2.464-1.32Z" fill="#fff"/>
    <path id="Path_11" data-name="Path 11" d="M76.892,12.528a6,6,0,0,1,4.48,1.536q1.536,1.5,1.536,4.864v13.28a7.167,7.167,0,0,1-.576,2.912A4.353,4.353,0,0,1,80.54,37.2a6.031,6.031,0,0,1-3.3.8,9.718,9.718,0,0,1-1.536-.128,8.4,8.4,0,0,1-1.344-.256V33.872a8.517,8.517,0,0,0,.9.192,4.576,4.576,0,0,0,.96.1,1.993,1.993,0,0,0,.96-.224,1.548,1.548,0,0,0,.7-.8,4.139,4.139,0,0,0,.26-1.64V20.112A5,5,0,0,0,77.5,17.3a2.217,2.217,0,0,0-1.984-.96,2.876,2.876,0,0,0-2.688,1.344,7.651,7.651,0,0,0-.8,3.872V30.32H67.26V20.112a6.433,6.433,0,0,0-.288-2.08,2.484,2.484,0,0,0-.864-1.248,2.327,2.327,0,0,0-1.472-.448,3.048,3.048,0,0,0-2.08.672,3.7,3.7,0,0,0-1.088,1.952,13.138,13.138,0,0,0-.32,3.136V30.32H56.38V12.848h3.648l.64,2.24h.256a4.593,4.593,0,0,1,1.344-1.44,5.343,5.343,0,0,1,1.76-.832,7.085,7.085,0,0,1,1.984-.288,7.546,7.546,0,0,1,3.264.64,4.26,4.26,0,0,1,2.048,1.92h.416a4.671,4.671,0,0,1,2.208-1.952,7.5,7.5,0,0,1,2.944-.608Z" fill="#fff"/>
    <path id="Path_12" data-name="Path 12" d="M42.05,30.64a6.279,6.279,0,0,1-6.144-4.064,13.031,13.031,0,0,1-.832-4.96q0-4.48,1.856-6.784a6.5,6.5,0,0,1,7.97-1.568,5.842,5.842,0,0,1,1.92,1.824h.128l.416-2.24H51.4V24.784a2.1,2.1,0,0,0,.384,1.472,1.336,1.336,0,0,0,.928.384,2.389,2.389,0,0,0,.512-.064q.288-.064.416-.1V30.22a2.166,2.166,0,0,1-.544.192,8.252,8.252,0,0,1-.832.16,5.072,5.072,0,0,1-.768.064,5.127,5.127,0,0,1-2.6-.576,3.743,3.743,0,0,1-1.536-2.048H47.17a6.721,6.721,0,0,1-1.952,1.824,5.67,5.67,0,0,1-3.168.8Zm1.28-3.74a3.869,3.869,0,0,0,2.112-.512,3.011,3.011,0,0,0,1.152-1.6,8.393,8.393,0,0,0,.352-2.624v-.512a7.728,7.728,0,0,0-.8-3.9,3.025,3.025,0,0,0-2.88-1.344,2.828,2.828,0,0,0-2.466,1.3,7.091,7.091,0,0,0-.9,3.968,7,7,0,0,0,.9,3.968A2.93,2.93,0,0,0,43.33,26.9Z" fill="#fff"/>
    <path id="Path_13" data-name="Path 13" d="M21.9,20.816q-1.984-.384-3.584-.8a10.192,10.192,0,0,1-2.752-1.184,5.416,5.416,0,0,1-1.76-1.856,6.125,6.125,0,0,1-.6-2.876,7.224,7.224,0,0,1,.576-3.04,4.892,4.892,0,0,1,1.76-2.08,8.377,8.377,0,0,1,3.04-1.152,21.891,21.891,0,0,1,4.384-.384,17.3,17.3,0,0,1,3.968.416A7.728,7.728,0,0,1,29.9,9.136,5.7,5.7,0,0,1,31.752,11.5a8.375,8.375,0,0,1,.672,3.552h-3.68a3.7,3.7,0,0,0-.512-2.08,3.1,3.1,0,0,0-1.344-1.216,5.358,5.358,0,0,0-1.952-.512,19.746,19.746,0,0,0-2.3-.128,14.572,14.572,0,0,0-2.56.192,5.109,5.109,0,0,0-1.664.512,2.289,2.289,0,0,0-.928.864,2.374,2.374,0,0,0-.288,1.184,1.969,1.969,0,0,0,.384,1.216,3.484,3.484,0,0,0,1.152.928,10.209,10.209,0,0,0,1.984.672q1.184.256,2.752.512a35.25,35.25,0,0,1,4,.832,8.961,8.961,0,0,1,2.88,1.248,4.894,4.894,0,0,1,1.728,1.952,6.2,6.2,0,0,1,.608,2.912,6.9,6.9,0,0,1-.608,3.04,4.8,4.8,0,0,1-1.824,2.048,8.819,8.819,0,0,1-3.1,1.184A22.27,22.27,0,0,1,22.7,30.8a18.313,18.313,0,0,1-4.064-.416A8.034,8.034,0,0,1,15.6,29.1a5.882,5.882,0,0,1-1.92-2.336,8.6,8.6,0,0,1-.68-3.58h3.68a3.937,3.937,0,0,0,.512,2.144A3.619,3.619,0,0,0,18.6,26.512a6.557,6.557,0,0,0,2.048.544,21.745,21.745,0,0,0,2.4.128,16.245,16.245,0,0,0,2.464-.16,5.942,5.942,0,0,0,1.76-.512,2.719,2.719,0,0,0,1.056-.864,2.3,2.3,0,0,0,.352-1.28,2.131,2.131,0,0,0-.672-1.664,4.533,4.533,0,0,0-1.632-.96,12.377,12.377,0,0,0-2.208-.544Q22.984,21.008,21.9,20.816Z" fill="#fff"/>
  </g>
</svg>
