<svg xmlns="http://www.w3.org/2000/svg" width="71.464" height="27.84" viewBox="0 0 71.464 27.84">
  <g id="_10.1" data-name="10.1" transform="translate(-7 -9)">
    <path id="Path_119" data-name="Path 119" d="M58.048,22.568a6.555,6.555,0,0,1,1.632-4.832,5.945,5.945,0,0,1,4.448-1.664,4.922,4.922,0,0,1,2.5.544,3.458,3.458,0,0,1,1.44,1.536v-1.7H71.1v6.816a3.141,3.141,0,0,0,.16,1.056,2.637,2.637,0,0,0,.416.768,1.613,1.613,0,0,0,1.376.672,2.23,2.23,0,0,0,1.216-.288,1.741,1.741,0,0,0,.64-.9,4.963,4.963,0,0,0,.288-1.408q.064-.832.064-1.856A11.22,11.22,0,0,0,74.5,16.9,7.293,7.293,0,0,0,72.32,13.96,8.43,8.43,0,0,0,68.96,12.3a17.158,17.158,0,0,0-4.352-.512,12.051,12.051,0,0,0-4.384.768A9.3,9.3,0,0,0,56.832,14.7a9.394,9.394,0,0,0-2.176,3.328,11.7,11.7,0,0,0-.768,4.32,13.516,13.516,0,0,0,.736,4.48,11.068,11.068,0,0,0,2.144,3.712,10.364,10.364,0,0,0,3.424,2.5,11.123,11.123,0,0,0,4.64.928,15.083,15.083,0,0,0,2.72-.224,7.451,7.451,0,0,0,2.112-.672,3.988,3.988,0,0,0,1.376-1.056,2.162,2.162,0,0,0,.48-1.376h2.72a5.1,5.1,0,0,1-.48,2.3A5.172,5.172,0,0,1,72.511,34.6a6.289,6.289,0,0,1-1.792,1.088,10,10,0,0,1-2.048.672,11.965,11.965,0,0,1-2.048.32q-.992.1-1.792.1a14.858,14.858,0,0,1-5.888-1.12A12.965,12.965,0,0,1,54.5,32.584,13.386,13.386,0,0,1,51.68,28.04a15.8,15.8,0,0,1-.992-5.632,14.53,14.53,0,0,1,.992-5.472,12.338,12.338,0,0,1,2.848-4.256,12.593,12.593,0,0,1,4.384-2.72,16.115,16.115,0,0,1,5.7-.96,18.927,18.927,0,0,1,5.664.8,12.114,12.114,0,0,1,4.384,2.3,10.272,10.272,0,0,1,2.816,3.808,13.1,13.1,0,0,1,.992,5.28,12.953,12.953,0,0,1-.384,3.424,5.814,5.814,0,0,1-1.12,2.24,3.875,3.875,0,0,1-1.728,1.184,6.775,6.775,0,0,1-2.272.352,5.018,5.018,0,0,1-2.944-.768,4.644,4.644,0,0,1-1.536-1.984,4.878,4.878,0,0,1-1.344,2.432,4.076,4.076,0,0,1-2.944.96,7.028,7.028,0,0,1-2.464-.416A5.589,5.589,0,0,1,59.776,27.4a6.2,6.2,0,0,1-1.28-2.048A8.022,8.022,0,0,1,58.048,22.568Zm3.2-.032a3.816,3.816,0,0,0,.9,2.752,3.438,3.438,0,0,0,2.592.928,3.183,3.183,0,0,0,2.5-.9,3.952,3.952,0,0,0,.832-2.72,4.058,4.058,0,0,0-.832-2.784,4.128,4.128,0,0,0-5.216,0A4.1,4.1,0,0,0,61.248,22.536Z" fill="#fff"/>
    <path id="Path_120" data-name="Path 120" d="M30.688,27.976a9.821,9.821,0,0,1,.16-1.792,4.909,4.909,0,0,1,.608-1.568,2.9,2.9,0,0,1,1.152-1.056,3.661,3.661,0,0,1,1.824-.416,9.168,9.168,0,0,1,1.792.192,18.617,18.617,0,0,1,2.016.512q1.024.32,2.048.672t1.92.672l1.6.512A4.476,4.476,0,0,0,44.9,25.9a1.5,1.5,0,0,0,.832-.192,1.04,1.04,0,0,0,.448-.512,1.834,1.834,0,0,0,.16-.768q.032-.448.032-.96h2.4a13.12,13.12,0,0,1-.128,1.856,4.351,4.351,0,0,1-.512,1.536,2.977,2.977,0,0,1-1.12,1.056,4.233,4.233,0,0,1-1.952.384,7.289,7.289,0,0,1-1.568-.192q-.864-.224-1.856-.512-.96-.32-1.984-.672-.992-.352-1.92-.672T36,25.736a6.034,6.034,0,0,0-1.376-.192,1.557,1.557,0,0,0-.64.128,1.12,1.12,0,0,0-.48.416,2.6,2.6,0,0,0-.32.768,5.468,5.468,0,0,0-.1,1.12Z" fill="#fff"/>
    <path id="Path_121" data-name="Path 121" d="M24.159,18.92a2.354,2.354,0,0,1,.512-1.664A2.281,2.281,0,0,1,26.4,16.68a2.171,2.171,0,0,1,1.7.576,2.265,2.265,0,0,1,.544,1.664,2.383,2.383,0,0,1-.544,1.7,2.248,2.248,0,0,1-1.7.544,2.364,2.364,0,0,1-1.728-.544A2.48,2.48,0,0,1,24.159,18.92Zm.128,11.2a2.354,2.354,0,0,1,.512-1.664,2.281,2.281,0,0,1,1.728-.576,2.171,2.171,0,0,1,1.7.576,2.265,2.265,0,0,1,.544,1.664,8.984,8.984,0,0,1-.224,1.984,7.388,7.388,0,0,1-.7,1.92,5.991,5.991,0,0,1-1.28,1.664A5.466,5.466,0,0,1,24.7,36.84l-.48-.736a6.935,6.935,0,0,0,1.664-1.952A5.41,5.41,0,0,0,26.5,32.36a2.514,2.514,0,0,1-1.7-.544A2.407,2.407,0,0,1,24.287,30.12Z" fill="#fff"/>
    <path id="Path_122" data-name="Path 122" d="M17.625,30.12a2.355,2.355,0,0,1,.512-1.664,2.281,2.281,0,0,1,1.728-.576,2.171,2.171,0,0,1,1.7.576A2.265,2.265,0,0,1,22.1,30.12a2.383,2.383,0,0,1-.544,1.7,2.248,2.248,0,0,1-1.7.544,2.364,2.364,0,0,1-1.728-.544A2.48,2.48,0,0,1,17.625,30.12Zm0-11.2a2.355,2.355,0,0,1,.512-1.664,2.281,2.281,0,0,1,1.728-.576,2.171,2.171,0,0,1,1.7.576A2.265,2.265,0,0,1,22.1,18.92a2.383,2.383,0,0,1-.544,1.7,2.248,2.248,0,0,1-1.7.544,2.364,2.364,0,0,1-1.728-.544A2.48,2.48,0,0,1,17.625,18.92Z" fill="#fff"/>
    <path id="Path_123" data-name="Path 123" d="M7.416,17.384,7,9.48H9.4l-.384,7.9Zm4.832,0-.416-7.9h2.4l-.384,7.9Z" fill="#fff"/>
  </g>
</svg>
