<svg xmlns="http://www.w3.org/2000/svg" width="82.291" height="27.776" viewBox="0 0 82.291 27.776">
  <g id="_10.2" data-name="10.2" transform="translate(-6 -8.12)">
    <path id="Path_124" data-name="Path 124" d="M68.287,21.688a7.415,7.415,0,0,1,2.368-4.832,7.426,7.426,0,0,1,4.992-1.664,5.089,5.089,0,0,1,2.72.608,3.068,3.068,0,0,1,1.344,1.664L80,15.576h1.6l-.992,6.912a6.083,6.083,0,0,0-.032,1.632,2.806,2.806,0,0,0,.416,1.056,1.78,1.78,0,0,0,.736.576,2.833,2.833,0,0,0,.96.16,3.175,3.175,0,0,0,1.6-.352,2.625,2.625,0,0,0,1.024-1.024,6.062,6.062,0,0,0,.608-1.632q.224-.96.384-2.144a13.344,13.344,0,0,0-.128-5.12,7.158,7.158,0,0,0-1.888-3.424,7.759,7.759,0,0,0-3.424-1.888,16.427,16.427,0,0,0-4.672-.608,14.13,14.13,0,0,0-4.9.832,12.728,12.728,0,0,0-4.032,2.368,13.126,13.126,0,0,0-2.88,3.712,14.887,14.887,0,0,0-1.5,4.8,14.252,14.252,0,0,0,.1,4.96,10.807,10.807,0,0,0,1.792,4.1,9.248,9.248,0,0,0,3.392,2.784,11.252,11.252,0,0,0,4.96,1.024,13.7,13.7,0,0,0,3.04-.32,8.375,8.375,0,0,0,2.432-.928,5.3,5.3,0,0,0,1.7-1.408,3.647,3.647,0,0,0,.8-1.888h1.6a5.783,5.783,0,0,1-.8,2.3,5.721,5.721,0,0,1-1.44,1.664,7.154,7.154,0,0,1-1.888,1.088,10.734,10.734,0,0,1-2.08.672,11.3,11.3,0,0,1-2.016.32q-.96.1-1.728.1a12.822,12.822,0,0,1-5.536-1.12A10.423,10.423,0,0,1,63.327,31.7a11.121,11.121,0,0,1-2.08-4.544,16.491,16.491,0,0,1-.128-5.632,16.293,16.293,0,0,1,1.728-5.472,14.875,14.875,0,0,1,3.3-4.256,14.622,14.622,0,0,1,4.64-2.72,16.266,16.266,0,0,1,5.632-.96,16.754,16.754,0,0,1,5.376.8,9.6,9.6,0,0,1,3.9,2.3A8.409,8.409,0,0,1,87.9,15.032a12.936,12.936,0,0,1,.224,5.28,18.312,18.312,0,0,1-.768,3.424,7.36,7.36,0,0,1-1.184,2.24,3.747,3.747,0,0,1-1.6,1.184,5.924,5.924,0,0,1-2.112.352,3.344,3.344,0,0,1-2.4-.768,3.506,3.506,0,0,1-1.024-1.888,5.724,5.724,0,0,1-1.824,2.368,5.3,5.3,0,0,1-3.3.928,7.6,7.6,0,0,1-2.592-.416,4.368,4.368,0,0,1-2.976-3.264A7.5,7.5,0,0,1,68.287,21.688Zm1.76-.064a4.555,4.555,0,0,0,.7,3.68,4.183,4.183,0,0,0,3.328,1.248,4.72,4.72,0,0,0,3.488-1.216,6.252,6.252,0,0,0,1.568-3.616,4.856,4.856,0,0,0-.576-3.68,3.776,3.776,0,0,0-3.232-1.248,5.1,5.1,0,0,0-3.744,1.216A6.249,6.249,0,0,0,70.047,21.624Z" fill="#fff"/>
    <path id="Path_125" data-name="Path 125" d="M36.683,27.1A9.961,9.961,0,0,1,37.1,25.3a5.175,5.175,0,0,1,.8-1.568,3.712,3.712,0,0,1,1.248-1.056,3.453,3.453,0,0,1,1.728-.416,5.987,5.987,0,0,1,1.632.256,15.126,15.126,0,0,1,1.856.672q.992.384,1.952.864.992.448,1.856.864.9.384,1.632.64a3.873,3.873,0,0,0,1.216.256,1.611,1.611,0,0,0,.928-.224,1.463,1.463,0,0,0,.544-.64,4.46,4.46,0,0,0,.288-1.024q.1-.608.192-1.344h1.6a16.786,16.786,0,0,1-.352,1.856,4.5,4.5,0,0,1-.64,1.536,3.33,3.33,0,0,1-1.12,1.056,3.528,3.528,0,0,1-1.76.384,4.57,4.57,0,0,1-1.344-.256q-.768-.256-1.7-.64-.9-.416-1.888-.864-.992-.48-1.952-.864a15.366,15.366,0,0,0-1.76-.672,5.084,5.084,0,0,0-1.472-.256,2.364,2.364,0,0,0-.608.1,1.469,1.469,0,0,0-.64.448,3.241,3.241,0,0,0-.608.96,6.687,6.687,0,0,0-.448,1.728Z" fill="#fff"/>
    <path id="Path_126" data-name="Path 126" d="M28.017,18.68a1.986,1.986,0,0,1,.544-1.184,1.813,1.813,0,0,1,1.28-.416,1.225,1.225,0,0,1,1.376,1.6,2.04,2.04,0,0,1-.576,1.216,1.784,1.784,0,0,1-1.248.384,1.548,1.548,0,0,1-1.184-.384A1.549,1.549,0,0,1,28.017,18.68ZM26.7,29.88a1.986,1.986,0,0,1,.544-1.184,1.813,1.813,0,0,1,1.28-.416,1.225,1.225,0,0,1,1.376,1.6,7.907,7.907,0,0,1-.48,1.888,7.552,7.552,0,0,1-.9,1.7,6.779,6.779,0,0,1-1.216,1.376,6.112,6.112,0,0,1-1.6.992l-.288-.512a7.314,7.314,0,0,0,1.952-1.984,6.539,6.539,0,0,0,.832-1.856,1.817,1.817,0,0,1-1.248-.352Q26.577,30.808,26.7,29.88Z" fill="#fff"/>
    <path id="Path_127" data-name="Path 127" d="M16.588,29.88a1.987,1.987,0,0,1,.544-1.184,1.813,1.813,0,0,1,1.28-.416,1.225,1.225,0,0,1,1.376,1.6,1.89,1.89,0,0,1-.576,1.184,1.7,1.7,0,0,1-1.248.416,1.476,1.476,0,0,1-1.184-.416A1.452,1.452,0,0,1,16.588,29.88Zm1.568-11.2A1.987,1.987,0,0,1,18.7,17.5a1.813,1.813,0,0,1,1.28-.416,1.225,1.225,0,0,1,1.376,1.6A2.04,2.04,0,0,1,20.78,19.9a1.784,1.784,0,0,1-1.248.384,1.548,1.548,0,0,1-1.184-.384A1.549,1.549,0,0,1,18.156,18.68Z" fill="#fff"/>
    <path id="Path_128" data-name="Path 128" d="M6,16.5l.928-7.9h1.6L7.28,16.5Zm4.64,0,.928-7.9h1.6L11.92,16.5Z" fill="#fff"/>
  </g>
</svg>
