<svg xmlns="http://www.w3.org/2000/svg" width="101.739" height="23.36" viewBox="0 0 101.739 23.36">
  <g id="_11.2" data-name="11.2" transform="translate(-11 -11)">
    <path id="Path_134" data-name="Path 134" d="M96.995,11.48h14.4V15H100.387l-.512,5.28h4.032a16.565,16.565,0,0,1,3.552.352,7.273,7.273,0,0,1,2.784,1.12,5.134,5.134,0,0,1,1.824,2.048,6.758,6.758,0,0,1,.672,3.168,9.859,9.859,0,0,1-.512,3.36,5.36,5.36,0,0,1-1.568,2.3,6.61,6.61,0,0,1-2.688,1.312,15.282,15.282,0,0,1-3.808.416,15.76,15.76,0,0,1-3.808-.416,6.853,6.853,0,0,1-2.784-1.28,5.831,5.831,0,0,1-1.728-2.336,9.86,9.86,0,0,1-.576-3.584h3.68a4.673,4.673,0,0,0,.416,2.144,3.229,3.229,0,0,0,1.152,1.184,4.336,4.336,0,0,0,1.632.544,14.752,14.752,0,0,0,1.952.128,9.934,9.934,0,0,0,2.336-.224,3.389,3.389,0,0,0,1.408-.736,2.492,2.492,0,0,0,.7-1.152,5.344,5.344,0,0,0,.192-1.472,3.1,3.1,0,0,0-.288-1.344,2.249,2.249,0,0,0-.9-1.056,4.649,4.649,0,0,0-1.632-.7,10.61,10.61,0,0,0-2.528-.256h-7.52Z" fill="#fff"/>
    <path id="Path_135" data-name="Path 135" d="M83.739,33.88V28.44h-12V24.92l12-13.44h3.84V24.92h2.56v3.52h-2.56v5.44Zm-7.328-8.96h7.328v-8.1Z" fill="#fff"/>
    <path id="Path_136" data-name="Path 136" d="M54.387,20.92H57.4a7.624,7.624,0,0,0,2.336-.288,3.951,3.951,0,0,0,1.376-.768,2.145,2.145,0,0,0,.608-1.056,4.646,4.646,0,0,0,.16-1.184,2.506,2.506,0,0,0-1.152-2.272,5.629,5.629,0,0,0-3.2-.768,14.8,14.8,0,0,0-2.016.128,4.058,4.058,0,0,0-1.6.544,2.9,2.9,0,0,0-1.024,1.216,5.409,5.409,0,0,0-.352,2.144h-3.68a9.6,9.6,0,0,1,.576-3.552A5.672,5.672,0,0,1,51.091,12.7a6.566,6.566,0,0,1,2.656-1.28A14.541,14.541,0,0,1,57.4,11q4.32,0,6.4,1.632a5.842,5.842,0,0,1,2.08,4.9,6.786,6.786,0,0,1-.608,2.944,4.669,4.669,0,0,1-1.952,2.016,6.2,6.2,0,0,1,2.144,1.984,5.262,5.262,0,0,1,.832,3.04,8.076,8.076,0,0,1-.544,3.1,4.813,4.813,0,0,1-1.632,2.112A7.126,7.126,0,0,1,61.3,33.944a17.265,17.265,0,0,1-4.064.416,15.32,15.32,0,0,1-3.712-.416,7.417,7.417,0,0,1-2.848-1.28,5.967,5.967,0,0,1-1.792-2.336,8.973,8.973,0,0,1-.64-3.584h3.68a4.672,4.672,0,0,0,.416,2.144,3.153,3.153,0,0,0,1.184,1.184,4.7,4.7,0,0,0,1.728.544,16.8,16.8,0,0,0,2.144.128,14.886,14.886,0,0,0,2.08-.128,4.2,4.2,0,0,0,1.536-.48,2.589,2.589,0,0,0,.96-.96,3.279,3.279,0,0,0,.32-1.536,2.916,2.916,0,0,0-.224-1.12A2.176,2.176,0,0,0,61.3,25.5a3.984,3.984,0,0,0-1.472-.768,8.147,8.147,0,0,0-2.368-.288H54.387Z" fill="#fff"/>
    <path id="Path_137" data-name="Path 137" d="M25.1,30.168A8.92,8.92,0,0,1,25.579,27a5.637,5.637,0,0,1,1.44-2.176,8.685,8.685,0,0,1,2.432-1.568q1.44-.64,3.3-1.28,1.472-.48,2.592-.9a12.164,12.164,0,0,0,1.888-.9,3.721,3.721,0,0,0,1.152-1.056,2.34,2.34,0,0,0,.416-1.408,3.117,3.117,0,0,0-.256-1.28,2.284,2.284,0,0,0-.768-.992,3.589,3.589,0,0,0-1.376-.64,8.152,8.152,0,0,0-2.08-.224,16,16,0,0,0-2.048.128,4.975,4.975,0,0,0-1.728.544,3.1,3.1,0,0,0-1.184,1.216,4.389,4.389,0,0,0-.448,2.144h-3.68a9.147,9.147,0,0,1,.608-3.552,5.674,5.674,0,0,1,1.76-2.368,7.13,7.13,0,0,1,2.816-1.28A15.868,15.868,0,0,1,34.187,11a14.236,14.236,0,0,1,3.808.448,6.857,6.857,0,0,1,2.688,1.28,5,5,0,0,1,1.568,2.112,7.324,7.324,0,0,1,.544,2.944,5.521,5.521,0,0,1-2.208,4.7,11.208,11.208,0,0,1-2.56,1.472q-1.5.608-3.392,1.28-.992.352-2.048.7a8.824,8.824,0,0,0-1.92.9,4.9,4.9,0,0,0-1.44,1.28,3.1,3.1,0,0,0-.544,1.888v.352H42.7v3.52H25.1Z" fill="#fff"/>
    <path id="Path_138" data-name="Path 138" d="M14.84,33.88V15H11V11.48h7.68v22.4Z" fill="#fff"/>
  </g>
</svg>
