<svg xmlns="http://www.w3.org/2000/svg" width="86.382" height="23.365" viewBox="0 0 86.382 23.365">
  <g id="_12.1" data-name="12.1" transform="translate(-13 -10.998)">
    <path id="Path_2" data-name="Path 2" d="M83.634,11.48h14.4V15H87.026l-.512,5.28h4.032a16.561,16.561,0,0,1,3.552.352,7.272,7.272,0,0,1,2.784,1.12A5.129,5.129,0,0,1,98.706,23.8a6.758,6.758,0,0,1,.672,3.168,9.849,9.849,0,0,1-.512,3.36,5.354,5.354,0,0,1-1.568,2.3A6.609,6.609,0,0,1,94.61,33.94a15.28,15.28,0,0,1-3.808.416,15.767,15.767,0,0,1-3.808-.416,6.852,6.852,0,0,1-2.784-1.28,5.831,5.831,0,0,1-1.728-2.336,9.86,9.86,0,0,1-.576-3.584h3.68A4.672,4.672,0,0,0,86,28.888a3.232,3.232,0,0,0,1.152,1.184,4.34,4.34,0,0,0,1.632.544,14.759,14.759,0,0,0,1.952.128,9.929,9.929,0,0,0,2.336-.224,3.383,3.383,0,0,0,1.408-.736,2.489,2.489,0,0,0,.7-1.152,5.344,5.344,0,0,0,.192-1.472,3.1,3.1,0,0,0-.288-1.344,2.243,2.243,0,0,0-.9-1.056,4.639,4.639,0,0,0-1.632-.7,10.6,10.6,0,0,0-2.528-.256H82.5Z" fill="#fff"/>
    <path id="Path_3" data-name="Path 3" d="M74.219,33.88V28.44h-12V24.92l12-13.44h3.84V24.92h2.56v3.52h-2.56v5.44Zm-7.328-8.96h7.328v-8.1Z" fill="#fff"/>
    <path id="Path_4" data-name="Path 4" d="M48.707,20.92h3.008a7.624,7.624,0,0,0,2.336-.288,3.951,3.951,0,0,0,1.376-.768,2.144,2.144,0,0,0,.608-1.056,4.642,4.642,0,0,0,.16-1.184,2.506,2.506,0,0,0-1.152-2.272,5.629,5.629,0,0,0-3.2-.768,14.8,14.8,0,0,0-2.016.128,4.058,4.058,0,0,0-1.6.544A2.9,2.9,0,0,0,47.2,16.472a5.409,5.409,0,0,0-.352,2.144h-3.68a9.6,9.6,0,0,1,.576-3.552A5.673,5.673,0,0,1,45.41,12.7a6.567,6.567,0,0,1,2.656-1.28A14.542,14.542,0,0,1,51.715,11q4.32,0,6.4,1.632a5.841,5.841,0,0,1,2.08,4.9,6.786,6.786,0,0,1-.608,2.944,4.668,4.668,0,0,1-1.952,2.016,6.2,6.2,0,0,1,2.144,1.984,5.261,5.261,0,0,1,.832,3.04,8.074,8.074,0,0,1-.544,3.1,4.812,4.812,0,0,1-1.632,2.112,7.126,7.126,0,0,1-2.816,1.216,17.264,17.264,0,0,1-4.064.416,15.32,15.32,0,0,1-3.712-.416A7.418,7.418,0,0,1,45,32.664a5.968,5.968,0,0,1-1.8-2.336,8.973,8.973,0,0,1-.64-3.584h3.68a4.673,4.673,0,0,0,.416,2.144,3.153,3.153,0,0,0,1.184,1.184,4.7,4.7,0,0,0,1.728.544,16.8,16.8,0,0,0,2.144.128,14.885,14.885,0,0,0,2.08-.128,4.2,4.2,0,0,0,1.536-.48,2.588,2.588,0,0,0,.96-.96,3.279,3.279,0,0,0,.32-1.536,2.916,2.916,0,0,0-.224-1.12,2.176,2.176,0,0,0-.768-1.024,3.984,3.984,0,0,0-1.472-.768,8.147,8.147,0,0,0-2.368-.288H48.707Z" fill="#fff"/>
    <path id="Path_5" data-name="Path 5" d="M23.258,30.168A8.92,8.92,0,0,1,23.738,27a5.637,5.637,0,0,1,1.44-2.176,8.683,8.683,0,0,1,2.432-1.568q1.44-.64,3.3-1.28,1.472-.48,2.592-.9a12.168,12.168,0,0,0,1.888-.9,3.721,3.721,0,0,0,1.152-1.056,2.341,2.341,0,0,0,.416-1.408,3.117,3.117,0,0,0-.256-1.28,2.284,2.284,0,0,0-.768-.992,3.589,3.589,0,0,0-1.376-.64,8.153,8.153,0,0,0-2.08-.224,16,16,0,0,0-2.048.128,4.975,4.975,0,0,0-1.728.544,3.1,3.1,0,0,0-1.184,1.216,4.388,4.388,0,0,0-.448,2.144H23.39A9.147,9.147,0,0,1,24,15.056a5.673,5.673,0,0,1,1.76-2.368,7.13,7.13,0,0,1,2.816-1.28A15.867,15.867,0,0,1,32.346,11a14.237,14.237,0,0,1,3.808.448,6.857,6.857,0,0,1,2.688,1.28A5,5,0,0,1,40.41,14.84a7.324,7.324,0,0,1,.544,2.944,5.521,5.521,0,0,1-2.208,4.7,11.208,11.208,0,0,1-2.56,1.472q-1.5.608-3.392,1.28-.992.352-2.048.7a8.824,8.824,0,0,0-1.92.9,4.9,4.9,0,0,0-1.44,1.28A3.094,3.094,0,0,0,26.842,30v.352H40.858v3.52h-17.6Z" fill="#fff"/>
    <path id="Path_6" data-name="Path 6" d="M16.84,33.88V15H13V11.48h7.68v22.4Z" fill="#fff"/>
  </g>
</svg>
