<svg xmlns="http://www.w3.org/2000/svg" width="61.52" height="20" viewBox="0 0 61.52 20">
  <g id="_12.2" data-name="12.2" transform="translate(-20 -13)">
    <path id="Path_139" data-name="Path 139" d="M71.68,13h9v2.2H73.8l-.32,3.3H76a10.35,10.35,0,0,1,2.22.22,4.546,4.546,0,0,1,1.74.7A3.206,3.206,0,0,1,81.1,20.7a4.224,4.224,0,0,1,.42,1.98,6.158,6.158,0,0,1-.32,2.1,3.345,3.345,0,0,1-.98,1.44,4.13,4.13,0,0,1-1.68.82,9.551,9.551,0,0,1-2.38.26,9.854,9.854,0,0,1-2.38-.26,4.284,4.284,0,0,1-1.74-.8,3.644,3.644,0,0,1-1.08-1.46,6.162,6.162,0,0,1-.36-2.24h2.3a2.921,2.921,0,0,0,.26,1.34,2.021,2.021,0,0,0,.72.74,2.711,2.711,0,0,0,1.02.34,9.227,9.227,0,0,0,1.22.08,6.207,6.207,0,0,0,1.46-.14,2.114,2.114,0,0,0,.88-.46,1.556,1.556,0,0,0,.44-.72,3.34,3.34,0,0,0,.12-.92,1.937,1.937,0,0,0-.18-.84,1.4,1.4,0,0,0-.56-.66,2.9,2.9,0,0,0-1.02-.44,6.627,6.627,0,0,0-1.58-.16h-4.7Z" fill="#fff"/>
    <path id="Path_140" data-name="Path 140" d="M63.383,33V28.629H53.6V25.8L63.383,15h3.13V25.8H68.6v2.829H66.513V33Zm-5.974-7.2h5.974V19.294Z" fill="#fff"/>
    <path id="Path_141" data-name="Path 141" d="M43.366,22.644H45.7a5.949,5.949,0,0,0,1.812-.222,3.07,3.07,0,0,0,1.067-.592,1.65,1.65,0,0,0,.472-.814,3.557,3.557,0,0,0,.124-.912,1.928,1.928,0,0,0-.894-1.751,4.389,4.389,0,0,0-2.482-.592,11.543,11.543,0,0,0-1.564.1,3.161,3.161,0,0,0-1.241.419,2.24,2.24,0,0,0-.794.937,4.144,4.144,0,0,0-.273,1.652H39.072a7.355,7.355,0,0,1,.447-2.737,4.372,4.372,0,0,1,1.291-1.825,5.11,5.11,0,0,1,2.06-.986A11.351,11.351,0,0,1,45.7,15a8.038,8.038,0,0,1,4.964,1.257,4.488,4.488,0,0,1,1.614,3.773,5.2,5.2,0,0,1-.472,2.268,3.609,3.609,0,0,1-1.514,1.554,4.794,4.794,0,0,1,1.663,1.529,4.034,4.034,0,0,1,.645,2.343,6.186,6.186,0,0,1-.422,2.392,3.712,3.712,0,0,1-1.266,1.627,5.548,5.548,0,0,1-2.184.937,13.477,13.477,0,0,1-3.153.32,11.96,11.96,0,0,1-2.879-.32,5.774,5.774,0,0,1-2.209-.986,4.6,4.6,0,0,1-1.39-1.8,6.874,6.874,0,0,1-.5-2.762h2.855a3.581,3.581,0,0,0,.323,1.652,2.439,2.439,0,0,0,.918.912,3.667,3.667,0,0,0,1.34.419,13.123,13.123,0,0,0,1.663.1,11.629,11.629,0,0,0,1.613-.1,3.278,3.278,0,0,0,1.191-.37,2,2,0,0,0,.745-.74,2.513,2.513,0,0,0,.248-1.184,2.234,2.234,0,0,0-.174-.863,1.678,1.678,0,0,0-.6-.789,3.1,3.1,0,0,0-1.142-.592,6.357,6.357,0,0,0-1.837-.222H43.366Z" fill="#fff"/>
    <path id="Path_142" data-name="Path 142" d="M26.412,26.68a5.575,5.575,0,0,1,.3-1.98,3.523,3.523,0,0,1,.9-1.36,5.428,5.428,0,0,1,1.52-.98q.9-.4,2.06-.8.92-.3,1.62-.56a7.6,7.6,0,0,0,1.18-.56,2.326,2.326,0,0,0,.72-.66,1.462,1.462,0,0,0,.26-.88,1.948,1.948,0,0,0-.16-.8,1.427,1.427,0,0,0-.48-.62,2.243,2.243,0,0,0-.86-.4,5.1,5.1,0,0,0-1.3-.14,10,10,0,0,0-1.28.08,3.11,3.11,0,0,0-1.08.34,1.935,1.935,0,0,0-.74.76,2.744,2.744,0,0,0-.28,1.34h-2.3a5.717,5.717,0,0,1,.38-2.22,3.546,3.546,0,0,1,1.1-1.48,4.457,4.457,0,0,1,1.76-.8,9.918,9.918,0,0,1,2.36-.26,8.9,8.9,0,0,1,2.38.28,4.285,4.285,0,0,1,1.68.8,3.127,3.127,0,0,1,.98,1.32,4.577,4.577,0,0,1,.34,1.84,3.45,3.45,0,0,1-1.38,2.94,7,7,0,0,1-1.6.92q-.94.38-2.12.8-.62.22-1.28.44a5.515,5.515,0,0,0-1.2.56,3.06,3.06,0,0,0-.9.8,1.934,1.934,0,0,0-.34,1.18v.22h8.76V29h-11Z" fill="#fff"/>
    <path id="Path_143" data-name="Path 143" d="M22.4,29V17.2H20V15h4.8V29Z" fill="#fff"/>
  </g>
</svg>
