<svg xmlns="http://www.w3.org/2000/svg" width="106.577" height="30.4" viewBox="0 0 106.577 30.4">
  <g id="_2.2" data-name="2.2" transform="translate(-9 -7)">
    <path id="Path_150" data-name="Path 150" d="M115.577,22.968v.64H100.7a8.932,8.932,0,0,0,.608,2.976,4.991,4.991,0,0,0,1.408,1.92,5.733,5.733,0,0,0,2.208,1.056,12.045,12.045,0,0,0,2.912.32,7.758,7.758,0,0,0,2.4-.352,6.3,6.3,0,0,0,1.857-.928,4.736,4.736,0,0,0,1.248-1.376,3.425,3.425,0,0,0,.447-1.7l1.6.032a5.318,5.318,0,0,1-1.952,4.288A8.489,8.489,0,0,1,107.8,31.48q-4.479,0-6.687-2.144-2.177-2.176-2.176-6.368a8.648,8.648,0,0,1,2.112-6.272,8.291,8.291,0,0,1,6.177-2.176,11.1,11.1,0,0,1,3.808.576,6.13,6.13,0,0,1,4.064,4.288A12.25,12.25,0,0,1,115.577,22.968Zm-14.848-.96h13.056a7.7,7.7,0,0,0-.608-2.752,4.97,4.97,0,0,0-1.376-1.824,4.834,4.834,0,0,0-1.984-.992,9.423,9.423,0,0,0-2.528-.32,7.642,7.642,0,0,0-2.432.384,5.974,5.974,0,0,0-2.016,1.088,5.618,5.618,0,0,0-1.407,1.856A7.506,7.506,0,0,0,100.729,22.008Z" fill="#fff"/>
    <path id="Path_151" data-name="Path 151" d="M96.365,31h-1.6V7h1.6Z" fill="#fff"/>
    <path id="Path_152" data-name="Path 152" d="M78.271,37.4h-1.6V15h1.6v2.432a5.066,5.066,0,0,1,2.24-2.144,8.841,8.841,0,0,1,4-.768,8.545,8.545,0,0,1,3.1.544A6.2,6.2,0,0,1,90.047,16.7a6.972,6.972,0,0,1,1.568,2.656A10.559,10.559,0,0,1,92.191,23a9.436,9.436,0,0,1-.672,3.68,7.953,7.953,0,0,1-1.728,2.656,7.355,7.355,0,0,1-2.5,1.6,8.012,8.012,0,0,1-2.912.544,7.915,7.915,0,0,1-3.9-.832,5.5,5.5,0,0,1-2.208-2.208Zm12.16-14.432a7.836,7.836,0,0,0-1.44-5.12,5.628,5.628,0,0,0-4.576-1.728,5.87,5.87,0,0,0-4.576,1.76,7.338,7.338,0,0,0-1.568,5.088,7.591,7.591,0,0,0,1.568,5.152,5.87,5.87,0,0,0,4.576,1.76,6.244,6.244,0,0,0,2.4-.448,5.225,5.225,0,0,0,1.92-1.312,6.4,6.4,0,0,0,1.248-2.176A9.183,9.183,0,0,0,90.431,22.968Z" fill="#fff"/>
    <path id="Path_153" data-name="Path 153" d="M61.8,31H60.2V20.536A5.46,5.46,0,0,0,59.978,19a3.434,3.434,0,0,0-.736-1.44,3.757,3.757,0,0,0-1.5-1.024,6.245,6.245,0,0,0-2.464-.416,4.958,4.958,0,0,0-4.128,1.728,8.239,8.239,0,0,0-1.344,5.12V31H48.2V15h1.6v2.4a5.3,5.3,0,0,1,2.112-2.112,6.909,6.909,0,0,1,3.456-.768,7.176,7.176,0,0,1,3.68.832,5.266,5.266,0,0,1,2.08,2.016,7,7,0,0,1,.928-1.056,5.7,5.7,0,0,1,1.28-.9A6.429,6.429,0,0,1,65,14.776,9.426,9.426,0,0,1,70.154,15a5,5,0,0,1,2.08,1.408,5.9,5.9,0,0,1,1.184,2.3,11.334,11.334,0,0,1,.384,3.1V31H72.2V21.784a10.648,10.648,0,0,0-.224-2.272,4.245,4.245,0,0,0-.736-1.792,3.494,3.494,0,0,0-1.5-1.184,6.245,6.245,0,0,0-2.464-.416,6.351,6.351,0,0,0-2.4.416,5.3,5.3,0,0,0-1.728,1.024A4.459,4.459,0,0,0,62.122,19a4.2,4.2,0,0,0-.32,1.568Z" fill="#fff"/>
    <path id="Path_154" data-name="Path 154" d="M43.708,31V28.408a3.508,3.508,0,0,1-.672,1.184,4.267,4.267,0,0,1-1.312.96,7.977,7.977,0,0,1-1.984.672,12.847,12.847,0,0,1-2.752.256,21.4,21.4,0,0,1-3.264-.224,7.784,7.784,0,0,1-2.464-.768,4.1,4.1,0,0,1-1.568-1.5,4.493,4.493,0,0,1-.544-2.3,4.017,4.017,0,0,1,.48-1.984,4.223,4.223,0,0,1,1.5-1.5A9.305,9.305,0,0,1,33.788,22.1a25.921,25.921,0,0,1,3.872-.7l6.048-.672v-.1a4.405,4.405,0,0,0-.608-2.5,3.87,3.87,0,0,0-1.536-1.344,5.467,5.467,0,0,0-1.984-.544,16.444,16.444,0,0,0-4.1,0,5.138,5.138,0,0,0-1.92.544A3.322,3.322,0,0,0,32.156,18.1a4.669,4.669,0,0,0-.544,2.432h-1.6a6.43,6.43,0,0,1,.512-2.688,5.056,5.056,0,0,1,1.5-1.888,6.4,6.4,0,0,1,2.336-1.088,12.547,12.547,0,0,1,3.1-.352,12.428,12.428,0,0,1,3.424.416,6.763,6.763,0,0,1,2.464,1.152,4.652,4.652,0,0,1,1.472,1.92,6.86,6.86,0,0,1,.48,2.656V31Zm0-5.408V22.168l-6.432.7a21.312,21.312,0,0,0-2.336.384,8.961,8.961,0,0,0-2.016.7,4.641,4.641,0,0,0-1.472,1.12,2.464,2.464,0,0,0-.544,1.6,3.414,3.414,0,0,0,.224,1.248A2.283,2.283,0,0,0,32,28.952a5.958,5.958,0,0,0,1.824.672,15.2,15.2,0,0,0,3.1.256,9.583,9.583,0,0,0,3.264-.48,6.562,6.562,0,0,0,2.08-1.152,3.928,3.928,0,0,0,1.12-1.408A3.252,3.252,0,0,0,43.708,25.592Z" fill="#fff"/>
    <path id="Path_155" data-name="Path 155" d="M18.12,20.472q-1.92-.48-3.552-.9a11.74,11.74,0,0,1-2.752-1.12A5.547,5.547,0,0,1,9.992,16.7a5.255,5.255,0,0,1-.64-2.752A5.815,5.815,0,0,1,9.9,11.32,4.4,4.4,0,0,1,11.56,9.5a8.105,8.105,0,0,1,2.848-1.024,20.587,20.587,0,0,1,4.064-.352,15.072,15.072,0,0,1,3.712.416,6.853,6.853,0,0,1,2.784,1.28,5.673,5.673,0,0,1,1.76,2.368,9.147,9.147,0,0,1,.608,3.552h-1.6a6.688,6.688,0,0,0-.608-3.1,4.107,4.107,0,0,0-1.6-1.792,5.665,5.665,0,0,0-2.3-.768A19.236,19.236,0,0,0,18.44,9.88a18.7,18.7,0,0,0-3.584.288,6.09,6.09,0,0,0-2.24.8,2.95,2.95,0,0,0-1.184,1.28,4.308,4.308,0,0,0-.32,1.728,3.212,3.212,0,0,0,.512,1.824A5,5,0,0,0,13.1,17.144a10.711,10.711,0,0,0,2.272.928q1.344.352,2.944.64a37.8,37.8,0,0,1,4.064.928,9.968,9.968,0,0,1,2.912,1.248,4.61,4.61,0,0,1,1.7,1.824A5.693,5.693,0,0,1,27.56,25.4a6.171,6.171,0,0,1-.576,2.784,4.5,4.5,0,0,1-1.7,1.888,8.081,8.081,0,0,1-2.944,1.056,21.861,21.861,0,0,1-4.224.352,16.017,16.017,0,0,1-3.808-.416,7.421,7.421,0,0,1-2.88-1.28A5.968,5.968,0,0,1,9.64,27.448,8.974,8.974,0,0,1,9,23.864h1.6a7.063,7.063,0,0,0,.608,3.2,4.677,4.677,0,0,0,1.7,1.824,6.674,6.674,0,0,0,2.432.8,21.538,21.538,0,0,0,2.912.192,18.846,18.846,0,0,0,3.328-.256,7.652,7.652,0,0,0,2.336-.832,3.576,3.576,0,0,0,1.408-1.344A3.838,3.838,0,0,0,25.8,25.5a3.528,3.528,0,0,0-.832-2.5,5.268,5.268,0,0,0-1.984-1.376,11.923,11.923,0,0,0-2.528-.7Q19.144,20.7,18.12,20.472Z" fill="#fff"/>
  </g>
</svg>
