<svg xmlns="http://www.w3.org/2000/svg" width="90.44" height="30.4" viewBox="0 0 90.44 30.4">
  <g id="_3.1" data-name="3.1" transform="translate(-10 -7)">
    <path id="Path_156" data-name="Path 156" d="M100.44,23.288v.64h-9.5a9.375,9.375,0,0,0,.256,2.08,4.359,4.359,0,0,0,.672,1.376,2.376,2.376,0,0,0,.992.736,3.767,3.767,0,0,0,1.312.224,2.685,2.685,0,0,0,1.088-.224,2.531,2.531,0,0,0,.864-.608,2.488,2.488,0,0,0,.576-.9,3.073,3.073,0,0,0,.192-1.088l3.36.032a5.93,5.93,0,0,1-1.568,4.288,5.947,5.947,0,0,1-4.544,1.632,6.551,6.551,0,0,1-5.376-2.144Q87,27.16,87,22.968A9.892,9.892,0,0,1,88.728,16.7a5.962,5.962,0,0,1,4.96-2.176,7.925,7.925,0,0,1,3.1.544,4.916,4.916,0,0,1,2.08,1.632,6.775,6.775,0,0,1,1.184,2.752A16.921,16.921,0,0,1,100.44,23.288Zm-9.376-1.76h5.664a6.274,6.274,0,0,0-.288-1.856,3.643,3.643,0,0,0-.64-1.184,1.88,1.88,0,0,0-.864-.672,2.648,2.648,0,0,0-.992-.192,2.4,2.4,0,0,0-1.088.256,2.425,2.425,0,0,0-.864.7,4.075,4.075,0,0,0-.64,1.216A7.673,7.673,0,0,0,91.064,21.528Z" fill="#fff"/>
    <path id="Path_157" data-name="Path 157" d="M84.445,31h-3.68V7h3.68Z" fill="#fff"/>
    <path id="Path_158" data-name="Path 158" d="M68.507,37.4h-3.68V15h3.68v2.3a4.662,4.662,0,0,1,1.568-2.016,4.147,4.147,0,0,1,2.56-.768,4.7,4.7,0,0,1,2.24.544,4.914,4.914,0,0,1,1.76,1.632,8.247,8.247,0,0,1,1.152,2.656A14.3,14.3,0,0,1,78.2,23a12.827,12.827,0,0,1-.48,3.68,8.285,8.285,0,0,1-1.248,2.656,5.289,5.289,0,0,1-1.792,1.6,4.571,4.571,0,0,1-2.176.544,3.83,3.83,0,0,1-2.5-.832,5.245,5.245,0,0,1-1.5-2.112Zm5.856-14.432a8.144,8.144,0,0,0-.672-3.744,2.306,2.306,0,0,0-2.208-1.28,2.441,2.441,0,0,0-2.24,1.344,7.6,7.6,0,0,0-.736,3.68,7.909,7.909,0,0,0,.736,3.712,2.441,2.441,0,0,0,2.24,1.344,2.129,2.129,0,0,0,1.152-.32,2.679,2.679,0,0,0,.928-.96,5.008,5.008,0,0,0,.576-1.568A9.775,9.775,0,0,0,74.363,22.968Z" fill="#fff"/>
    <path id="Path_159" data-name="Path 159" d="M53.884,31H50.2V21.752a10.2,10.2,0,0,0-.1-1.44,3.883,3.883,0,0,0-.352-1.216,1.823,1.823,0,0,0-.64-.832,1.5,1.5,0,0,0-.992-.32,1.909,1.909,0,0,0-1.76,1.28,9.335,9.335,0,0,0-.576,3.744V31h-3.68V15h3.68v2.208a4.547,4.547,0,0,1,1.344-1.984,4,4,0,0,1,4.576.032A4.422,4.422,0,0,1,53.18,17.24a5.618,5.618,0,0,1,.48-1.024,4.344,4.344,0,0,1,.736-.9,3.028,3.028,0,0,1,1.024-.576,3.863,3.863,0,0,1,1.344-.224,5.775,5.775,0,0,1,2.3.416A3.761,3.761,0,0,1,60.7,16.248a6.016,6.016,0,0,1,.928,2.336,16.331,16.331,0,0,1,.32,3.488V31h-3.68V22.392a15.454,15.454,0,0,0-.1-1.824,4.282,4.282,0,0,0-.32-1.408,2.022,2.022,0,0,0-.64-.9,1.548,1.548,0,0,0-1.024-.32,1.718,1.718,0,0,0-1.024.32,2.285,2.285,0,0,0-.7.832,4.515,4.515,0,0,0-.448,1.216,7.884,7.884,0,0,0-.128,1.472Z" fill="#fff"/>
    <path id="Path_160" data-name="Path 160" d="M35.539,31V28.6a3.706,3.706,0,0,1-.512,1.056,3.829,3.829,0,0,1-.928.928,4.921,4.921,0,0,1-1.344.64,6.1,6.1,0,0,1-1.856.256,9.573,9.573,0,0,1-2.112-.224,3.939,3.939,0,0,1-2.848-2.336,6.392,6.392,0,0,1-.416-2.464,5.264,5.264,0,0,1,.352-2.048,3.635,3.635,0,0,1,1.088-1.376,5.474,5.474,0,0,1,1.76-.9,13.724,13.724,0,0,1,2.432-.544l4.384-.576v-.224a4.047,4.047,0,0,0-.288-1.7,2.3,2.3,0,0,0-.736-.96,2.4,2.4,0,0,0-.96-.416,4.729,4.729,0,0,0-.928-.1,5.381,5.381,0,0,0-.992.1,2.258,2.258,0,0,0-.928.352,2.008,2.008,0,0,0-.672.864,4.038,4.038,0,0,0-.256,1.6h-3.36a7.952,7.952,0,0,1,.416-2.752A4.957,4.957,0,0,1,28.083,15.9a4.681,4.681,0,0,1,1.952-1.056,9.689,9.689,0,0,1,2.592-.32,10.424,10.424,0,0,1,2.88.352,4.357,4.357,0,0,1,2.048,1.12A4.93,4.93,0,0,1,38.8,18.1a10.814,10.814,0,0,1,.416,3.232V31Zm0-6.08v-1.5l-3.328.448a5.814,5.814,0,0,0-1.088.288,2.957,2.957,0,0,0-.928.48,2.051,2.051,0,0,0-.608.736,2.26,2.26,0,0,0-.224,1.024,2.617,2.617,0,0,0,.128.832,1.481,1.481,0,0,0,.416.608,2.15,2.15,0,0,0,.832.384,5.225,5.225,0,0,0,1.248.128,3.325,3.325,0,0,0,1.5-.32,3.785,3.785,0,0,0,1.088-.8,3.3,3.3,0,0,0,.7-1.12A3.04,3.04,0,0,0,35.539,24.92Z" fill="#fff"/>
    <path id="Path_161" data-name="Path 161" d="M15.792,21.5a22.49,22.49,0,0,1-2.24-.832,6.636,6.636,0,0,1-1.792-1.216,5.409,5.409,0,0,1-1.152-1.888,8.453,8.453,0,0,1-.416-2.848,9.571,9.571,0,0,1,.416-3.008,4.8,4.8,0,0,1,1.28-2.048A5.074,5.074,0,0,1,14.064,8.5a11.119,11.119,0,0,1,3.1-.384,8.7,8.7,0,0,1,2.816.416A4.432,4.432,0,0,1,22,9.816a5.912,5.912,0,0,1,1.216,2.368,12.1,12.1,0,0,1,.448,3.552h-3.68a7.707,7.707,0,0,0-.224-2.08,2.7,2.7,0,0,0-.576-1.216,1.458,1.458,0,0,0-.864-.512,4.76,4.76,0,0,0-1.152-.128,4.613,4.613,0,0,0-1.44.192,1.923,1.923,0,0,0-.9.544,2.063,2.063,0,0,0-.512.9,5.065,5.065,0,0,0-.128,1.216,2.768,2.768,0,0,0,.256,1.248,3.045,3.045,0,0,0,.8.864,5.109,5.109,0,0,0,1.28.608q.768.256,1.792.512a12.746,12.746,0,0,1,2.464.864,4.818,4.818,0,0,1,1.728,1.28,5.2,5.2,0,0,1,1.056,1.984,10.349,10.349,0,0,1,.352,2.912,10.184,10.184,0,0,1-.384,2.976,4.692,4.692,0,0,1-1.216,2.048A4.833,4.833,0,0,1,20.176,31.1a11.388,11.388,0,0,1-3.168.384,9.719,9.719,0,0,1-2.944-.416,5.089,5.089,0,0,1-2.176-1.28,6.162,6.162,0,0,1-1.408-2.336A11.658,11.658,0,0,1,10,23.864h3.68a6.5,6.5,0,0,0,.288,2.144,3.043,3.043,0,0,0,.736,1.184,2.389,2.389,0,0,0,1.088.544,6.2,6.2,0,0,0,1.28.128,4.829,4.829,0,0,0,1.344-.16,1.836,1.836,0,0,0,.864-.512,2.035,2.035,0,0,0,.48-.9,4.829,4.829,0,0,0,.16-1.344,2.93,2.93,0,0,0-.384-1.632,2.585,2.585,0,0,0-.992-.928,4.21,4.21,0,0,0-1.312-.512Q16.5,21.688,15.792,21.5Z" fill="#fff"/>
  </g>
</svg>
