<svg xmlns="http://www.w3.org/2000/svg" width="111.675" height="30.4" viewBox="0 0 111.675 30.4">
  <g id="_3.2" data-name="3.2" transform="translate(-8 -7)">
    <path id="Path_162" data-name="Path 162" d="M119.675,23.448v.48H106.811a5.54,5.54,0,0,0,.416,2.112,3.633,3.633,0,0,0,1.024,1.344,4.26,4.26,0,0,0,1.568.736,8.588,8.588,0,0,0,2.016.224,6.17,6.17,0,0,0,1.728-.224,4.354,4.354,0,0,0,1.344-.608,2.983,2.983,0,0,0,.9-.9,2.021,2.021,0,0,0,.32-1.088l3.36.032a5.318,5.318,0,0,1-1.952,4.288,8.676,8.676,0,0,1-5.7,1.632q-4.543,0-6.752-2.144-2.208-2.176-2.208-6.368a8.568,8.568,0,0,1,2.144-6.272,8.446,8.446,0,0,1,6.24-2.176,11.374,11.374,0,0,1,3.84.576,6.167,6.167,0,0,1,2.624,1.664,6.583,6.583,0,0,1,1.472,2.816A14.025,14.025,0,0,1,119.675,23.448Zm-12.736-1.92h9.024a3.965,3.965,0,0,0-.416-1.728,3.389,3.389,0,0,0-.96-1.216,3.687,3.687,0,0,0-1.44-.736,6.385,6.385,0,0,0-1.728-.224,5.024,5.024,0,0,0-1.6.256,4.367,4.367,0,0,0-1.408.7,3.716,3.716,0,0,0-.992,1.216A4.681,4.681,0,0,0,106.939,21.528Z" fill="#fff"/>
    <path id="Path_163" data-name="Path 163" d="M100.32,31H96.64V7h3.68Z" fill="#fff"/>
    <path id="Path_164" data-name="Path 164" d="M81.507,37.4h-3.68V15h3.68v2.208a4.544,4.544,0,0,1,1.92-1.984,6.957,6.957,0,0,1,3.36-.7,7.863,7.863,0,0,1,2.976.544,6.07,6.07,0,0,1,2.3,1.632,7.1,7.1,0,0,1,1.472,2.656A11.125,11.125,0,0,1,94.083,23a10.318,10.318,0,0,1-.608,3.68,7.687,7.687,0,0,1-1.6,2.656,6.844,6.844,0,0,1-2.368,1.6,7.517,7.517,0,0,1-2.848.544,6.16,6.16,0,0,1-3.264-.768,4.985,4.985,0,0,1-1.888-2.048Zm8.736-14.432a5.807,5.807,0,0,0-1.024-3.744,3.918,3.918,0,0,0-3.3-1.28,4.205,4.205,0,0,0-3.3,1.28,5.528,5.528,0,0,0-1.12,3.744,5.658,5.658,0,0,0,1.12,3.776,4.205,4.205,0,0,0,3.3,1.28,4.7,4.7,0,0,0,1.76-.32,3.652,3.652,0,0,0,1.376-.96,4.141,4.141,0,0,0,.864-1.568A6.975,6.975,0,0,0,90.243,22.968Z" fill="#fff"/>
    <path id="Path_165" data-name="Path 165" d="M63.831,31h-3.68V21.752a6.208,6.208,0,0,0-.16-1.44,2.924,2.924,0,0,0-.576-1.216,2.4,2.4,0,0,0-1.088-.832,4.032,4.032,0,0,0-1.728-.32,3.459,3.459,0,0,0-2.912,1.28,5.943,5.943,0,0,0-.992,3.744V31h-3.68V15h3.68v2.208a5.447,5.447,0,0,1,2.016-1.984,6.576,6.576,0,0,1,3.2-.7,6.3,6.3,0,0,1,3.072.672,4.831,4.831,0,0,1,1.952,1.92,6.242,6.242,0,0,1,.832-1.024,5.671,5.671,0,0,1,1.152-.832,5.762,5.762,0,0,1,1.44-.544,8.269,8.269,0,0,1,1.856-.192,9.57,9.57,0,0,1,3.008.416,4.875,4.875,0,0,1,2.112,1.312,5.413,5.413,0,0,1,1.216,2.336,13.7,13.7,0,0,1,.384,3.488V31h-3.68V22.392a9.364,9.364,0,0,0-.16-1.824,3.81,3.81,0,0,0-.544-1.408,2.525,2.525,0,0,0-1.088-.9,4.032,4.032,0,0,0-1.728-.32,4.307,4.307,0,0,0-1.728.32,3.435,3.435,0,0,0-1.216.832,3.507,3.507,0,0,0-.736,1.216,4.632,4.632,0,0,0-.224,1.472Z" fill="#fff"/>
    <path id="Path_166" data-name="Path 166" d="M42.457,31V28.7a3.176,3.176,0,0,1-.64,1.088,3.6,3.6,0,0,1-1.152.9,7.437,7.437,0,0,1-1.728.576,10.886,10.886,0,0,1-2.368.224,17.959,17.959,0,0,1-2.944-.224,6.844,6.844,0,0,1-2.3-.8,4.154,4.154,0,0,1-1.5-1.536,5.073,5.073,0,0,1-.544-2.464A3.736,3.736,0,0,1,31.161,23a7.638,7.638,0,0,1,2.3-.9,20.057,20.057,0,0,1,3.136-.512l5.856-.576V20.76a2.812,2.812,0,0,0-.448-1.7,2.606,2.606,0,0,0-1.12-.928,4.7,4.7,0,0,0-1.472-.416,11.829,11.829,0,0,0-3.008,0A4.27,4.27,0,0,0,35,18.072a2.6,2.6,0,0,0-1.056.864,2.691,2.691,0,0,0-.416,1.6h-3.36a6.266,6.266,0,0,1,.544-2.752A4.932,4.932,0,0,1,32.249,15.9a6.635,6.635,0,0,1,2.464-1.056,14.946,14.946,0,0,1,3.232-.32,15.907,15.907,0,0,1,3.584.352,6.119,6.119,0,0,1,2.56,1.12A4.541,4.541,0,0,1,45.625,18.1a8.929,8.929,0,0,1,.512,3.232V31Zm0-5.5V23.352l-5.344.512a11.38,11.38,0,0,0-1.568.288,4.347,4.347,0,0,0-1.248.48,2.444,2.444,0,0,0-.864.736,1.718,1.718,0,0,0-.32,1.024,1.834,1.834,0,0,0,.192.832,1.877,1.877,0,0,0,.672.608,4.08,4.08,0,0,0,1.216.384,11.139,11.139,0,0,0,1.856.128,9.051,9.051,0,0,0,2.432-.288,6.655,6.655,0,0,0,1.7-.7,2.68,2.68,0,0,0,.96-.928A1.793,1.793,0,0,0,42.457,25.5Z" fill="#fff"/>
    <path id="Path_167" data-name="Path 167" d="M16.9,21.5q-1.984-.384-3.584-.8a10.192,10.192,0,0,1-2.752-1.184A5.416,5.416,0,0,1,8.8,17.656a6.125,6.125,0,0,1-.608-2.88,7.224,7.224,0,0,1,.576-3.04,4.891,4.891,0,0,1,1.76-2.08A8.377,8.377,0,0,1,13.568,8.5a21.891,21.891,0,0,1,4.384-.384,17.3,17.3,0,0,1,3.968.416A7.728,7.728,0,0,1,24.9,9.816a5.7,5.7,0,0,1,1.856,2.368,8.375,8.375,0,0,1,.672,3.552h-3.68a3.705,3.705,0,0,0-.512-2.08,3.1,3.1,0,0,0-1.344-1.216,5.358,5.358,0,0,0-1.952-.512,19.745,19.745,0,0,0-2.3-.128,14.572,14.572,0,0,0-2.56.192,5.109,5.109,0,0,0-1.664.512,2.289,2.289,0,0,0-.928.864,2.374,2.374,0,0,0-.288,1.184,1.969,1.969,0,0,0,.384,1.216,3.484,3.484,0,0,0,1.152.928,10.209,10.209,0,0,0,1.984.672q1.184.256,2.752.512a35.25,35.25,0,0,1,4,.832,8.961,8.961,0,0,1,2.88,1.248,4.894,4.894,0,0,1,1.728,1.952,6.2,6.2,0,0,1,.608,2.912,6.9,6.9,0,0,1-.608,3.04,4.8,4.8,0,0,1-1.824,2.048,8.819,8.819,0,0,1-3.1,1.184,22.27,22.27,0,0,1-4.448.384,18.313,18.313,0,0,1-4.064-.416,8.034,8.034,0,0,1-3.04-1.28,5.882,5.882,0,0,1-1.92-2.336A8.6,8.6,0,0,1,8,23.864h3.68a3.937,3.937,0,0,0,.512,2.144A3.619,3.619,0,0,0,13.6,27.192a6.557,6.557,0,0,0,2.048.544,21.744,21.744,0,0,0,2.4.128,16.245,16.245,0,0,0,2.464-.16,5.942,5.942,0,0,0,1.76-.512,2.719,2.719,0,0,0,1.056-.864,2.3,2.3,0,0,0,.352-1.28,2.131,2.131,0,0,0-.672-1.664,4.533,4.533,0,0,0-1.632-.96,12.378,12.378,0,0,0-2.208-.544Q17.984,21.688,16.9,21.5Z" fill="#fff"/>
  </g>
</svg>
