<svg xmlns="http://www.w3.org/2000/svg" width="128.08" height="32.16" viewBox="0 0 128.08 32.16">
  <g id="_6.2" data-name="6.2" transform="translate(-5 -6)">
    <path id="Path_198" data-name="Path 198" d="M127.16,6a7.191,7.191,0,0,1,3.3.672,4.446,4.446,0,0,1,1.952,1.856,5.349,5.349,0,0,1,.672,2.688,5.226,5.226,0,0,1-.832,3.072,4.722,4.722,0,0,1-2.3,1.76,10.442,10.442,0,0,1-3.552.544h-.928V30.48H120.7V16.592H114.1v8.416a1.907,1.907,0,0,0,.576,1.5,2.273,2.273,0,0,0,1.5.48,7.2,7.2,0,0,0,1.536-.16q.736-.16,1.472-.384V30a10.056,10.056,0,0,1-1.92.544,11.058,11.058,0,0,1-2.464.256,7.363,7.363,0,0,1-2.816-.512,4.089,4.089,0,0,1-1.952-1.76,7.358,7.358,0,0,1-.7-3.52V16.592h-2.272V14.576l2.624-1.6,1.376-3.68h3.04v3.712H120.7v-.9a6.58,6.58,0,0,1,.7-3.04,5.551,5.551,0,0,1,2.176-2.208A6.861,6.861,0,0,1,127.16,6Zm-.352,7.008a2.606,2.606,0,0,0,1.632-.448,1.728,1.728,0,0,0,.576-1.408,1.572,1.572,0,0,0-.224-.864,1.391,1.391,0,0,0-.608-.608,1.811,1.811,0,0,0-.928-.224,1.765,1.765,0,0,0-1.312.608,2.436,2.436,0,0,0-.544,1.728v1.216Z" fill="#fff"/>
    <path id="Path_199" data-name="Path 199" d="M95.523,32.368a7.949,7.949,0,0,1-.512,2.912,4.224,4.224,0,0,1-1.728,2.08,5.7,5.7,0,0,1-3.232.8,8.579,8.579,0,0,1-1.472-.128,4.306,4.306,0,0,1-1.28-.352V34.032q.448.128.832.224a4.134,4.134,0,0,0,.928.1,1.571,1.571,0,0,0,1.248-.512,2.066,2.066,0,0,0,.448-1.408V30a10.056,10.056,0,0,1-1.92.544,11.062,11.062,0,0,1-2.464.256,7.361,7.361,0,0,1-2.816-.512,4.084,4.084,0,0,1-1.952-1.76,7.353,7.353,0,0,1-.7-3.52V16.592H78.627V14.576l2.624-1.6L82.627,9.3h3.04v3.712h5.088v-1.44A7.1,7.1,0,0,1,91.363,8.4a3.944,3.944,0,0,1,1.856-1.824A7.311,7.311,0,0,1,96.291,6a7.418,7.418,0,0,1,1.632.16,4.9,4.9,0,0,1,1.056.32v3.648a5.021,5.021,0,0,0-.736-.192,3.605,3.605,0,0,0-.992-.128,1.688,1.688,0,0,0-1.248.48,1.956,1.956,0,0,0-.48,1.44Zm-7.776-5.376a7.211,7.211,0,0,0,1.536-.16q.736-.16,1.472-.384V16.592H85.667v8.416a1.907,1.907,0,0,0,.576,1.5A2.271,2.271,0,0,0,87.747,26.992Z" fill="#fff"/>
    <path id="Path_200" data-name="Path 200" d="M51.933,30.48a7.541,7.541,0,0,1-2.88-.512,4.064,4.064,0,0,1-1.92-1.824,7.482,7.482,0,0,1-.672-3.456v-8.1H44.189V14.576l2.624-1.6L48.189,9.3h3.04v3.712h8.032a8.88,8.88,0,0,1,1.312-.224,10.2,10.2,0,0,1,1.44-.1,14.584,14.584,0,0,1,3.1.32,14.363,14.363,0,0,1,3.04,1.056l-1.44,3.424q-.864-.384-1.664-.672a11.652,11.652,0,0,0-1.568-.448,7.217,7.217,0,0,0-1.536-.16,3.512,3.512,0,0,0-1.6.288.932.932,0,0,0-.512.864,1.1,1.1,0,0,0,.256.7,4.309,4.309,0,0,0,1.056.672q.8.352,2.336.96a15.487,15.487,0,0,1,2.592,1.248,4.528,4.528,0,0,1,1.664,1.632,4.6,4.6,0,0,1,.608,2.5,4.878,4.878,0,0,1-.9,2.976,5.637,5.637,0,0,1-2.624,1.824,12.927,12.927,0,0,1-4.256.608Zm9.12-3.584a5.626,5.626,0,0,0,1.472-.16,1.74,1.74,0,0,0,.832-.512,1.229,1.229,0,0,0,.288-.8,1.192,1.192,0,0,0-.256-.768,2.741,2.741,0,0,0-1.024-.7q-.8-.416-2.5-1.088a17.435,17.435,0,0,1-2.688-1.344,4.482,4.482,0,0,1-1.568-1.6,4.866,4.866,0,0,1-.512-2.368,3.39,3.39,0,0,1,.032-.48,4.8,4.8,0,0,0,.1-.48h-4v8.224a2.057,2.057,0,0,0,.544,1.568,2.154,2.154,0,0,0,1.536.512Z" fill="#fff"/>
    <path id="Path_201" data-name="Path 201" d="M27.08,38.16a9.73,9.73,0,0,1-1.536-.128,8.4,8.4,0,0,1-1.344-.256V34.032a8.549,8.549,0,0,0,.9.192,4.577,4.577,0,0,0,.96.1,1.994,1.994,0,0,0,.96-.224,1.548,1.548,0,0,0,.7-.8,4.139,4.139,0,0,0,.256-1.632V19.92a3.982,3.982,0,0,0-.7-2.56A2.564,2.564,0,0,0,25.16,16.5a3.516,3.516,0,0,0-2.272.672A3.67,3.67,0,0,0,21.7,19.12a13.138,13.138,0,0,0-.32,3.136V30.48H16.616V16.592H12.392V30.48H7.624V16.592H5v-2.3l2.624-1.28v-1.28A6.714,6.714,0,0,1,8.36,8.272,4.149,4.149,0,0,1,10.5,6.512,9.637,9.637,0,0,1,13.8,6a12.953,12.953,0,0,1,2.528.224,10.153,10.153,0,0,1,1.856.512l-1.216,3.488q-.544-.16-1.184-.288a6.1,6.1,0,0,0-1.472-.16,1.761,1.761,0,0,0-1.472.608,2.52,2.52,0,0,0-.448,1.536v1.088h7.872l.64,2.24h.288a4.778,4.778,0,0,1,1.408-1.44,5.629,5.629,0,0,1,1.856-.832,7.647,7.647,0,0,1,2.08-.288,7.366,7.366,0,0,1,3.264.672,4.772,4.772,0,0,1,2.176,2.08,7.588,7.588,0,0,1,.768,3.648v13.28a7.167,7.167,0,0,1-.576,2.912,4.353,4.353,0,0,1-1.792,2.08A6.032,6.032,0,0,1,27.08,38.16Z" fill="#fff"/>
  </g>
</svg>
