<svg xmlns="http://www.w3.org/2000/svg" width="128.684" height="30.4" viewBox="0 0 128.684 30.4">
  <g id="_7.2" data-name="7.2" transform="translate(-11 -7)">
    <path id="Path_208" data-name="Path 208" d="M139.684,23.448v.48H123.748a4.805,4.805,0,0,0,.544,2.112,3.619,3.619,0,0,0,1.376,1.344,6.654,6.654,0,0,0,2.112.736,14.674,14.674,0,0,0,2.656.224,10.65,10.65,0,0,0,2.272-.224,7.044,7.044,0,0,0,1.792-.608,3.534,3.534,0,0,0,1.184-.9,1.633,1.633,0,0,0,.448-1.088l3.36.032a5.025,5.025,0,0,1-2.3,4.288q-2.3,1.632-6.752,1.632-5.345,0-7.968-2.144a7.8,7.8,0,0,1-2.624-6.368,7.821,7.821,0,0,1,2.528-6.272q2.559-2.176,7.36-2.176a15.831,15.831,0,0,1,4.576.576,7.348,7.348,0,0,1,3.072,1.664,6.417,6.417,0,0,1,1.76,2.816A12.5,12.5,0,0,1,139.684,23.448Zm-15.808-1.92h12.16a3.628,3.628,0,0,0-.544-1.792,3.534,3.534,0,0,0-1.312-1.184,6,6,0,0,0-1.888-.7,11.759,11.759,0,0,0-2.368-.224,9.607,9.607,0,0,0-2.208.256,6.41,6.41,0,0,0-1.888.7,4.1,4.1,0,0,0-1.376,1.184A3.376,3.376,0,0,0,123.876,21.528Z" fill="#fff"/>
    <path id="Path_209" data-name="Path 209" d="M117.288,31h-3.68V7h3.68Z" fill="#fff"/>
    <path id="Path_210" data-name="Path 210" d="M94.945,37.4h-3.68V15h3.68v2.336a4.827,4.827,0,0,1,2.4-2.08,11.223,11.223,0,0,1,4.512-.736,12.024,12.024,0,0,1,3.744.544,7.646,7.646,0,0,1,2.88,1.632,7.1,7.1,0,0,1,1.888,2.656A9.2,9.2,0,0,1,111.041,23a8.406,8.406,0,0,1-.768,3.68,7.781,7.781,0,0,1-2.016,2.656,8.9,8.9,0,0,1-2.976,1.6,11.667,11.667,0,0,1-3.584.544,10.022,10.022,0,0,1-4.416-.8,5.519,5.519,0,0,1-2.336-2.24ZM107.2,22.968a4.687,4.687,0,0,0-1.44-3.744q-1.409-1.28-4.64-1.28a7.086,7.086,0,0,0-4.7,1.28,4.694,4.694,0,0,0-1.472,3.744,4.794,4.794,0,0,0,1.472,3.776q1.472,1.28,4.7,1.28a9.206,9.206,0,0,0,2.528-.32,5.1,5.1,0,0,0,1.888-.96,4.171,4.171,0,0,0,1.216-1.568A5.176,5.176,0,0,0,107.2,22.968Z" fill="#fff"/>
    <path id="Path_211" data-name="Path 211" d="M75.039,31h-3.68V21.752a4.526,4.526,0,0,0-.224-1.44,2.693,2.693,0,0,0-.7-1.216,3.258,3.258,0,0,0-1.408-.832,6.847,6.847,0,0,0-2.272-.32A5.316,5.316,0,0,0,63.2,19.032,4.636,4.636,0,0,0,61.663,22.2V31h-3.68V15h3.68v2.272a6.87,6.87,0,0,1,2.56-2.016,9.051,9.051,0,0,1,3.808-.736,8.569,8.569,0,0,1,3.776.736A4.952,4.952,0,0,1,74.079,17.3,8.164,8.164,0,0,1,75.1,16.216a5.382,5.382,0,0,1,1.344-.864,8.418,8.418,0,0,1,1.792-.608,10.489,10.489,0,0,1,2.24-.224,13.42,13.42,0,0,1,3.552.416A5.81,5.81,0,0,1,86.5,16.248,5.255,5.255,0,0,1,87.9,18.584a11.106,11.106,0,0,1,.48,3.488V31H84.7V22.392a7.849,7.849,0,0,0-.192-1.824,2.984,2.984,0,0,0-.736-1.408,3.342,3.342,0,0,0-1.408-.9,6.847,6.847,0,0,0-2.272-.32,6.978,6.978,0,0,0-2.208.32,4.378,4.378,0,0,0-1.6.832,3.431,3.431,0,0,0-.928,1.216,3.38,3.38,0,0,0-.32,1.472Z" fill="#fff"/>
    <path id="Path_212" data-name="Path 212" d="M51.428,31V28.632a4.144,4.144,0,0,1-.832,1.152,4.518,4.518,0,0,1-1.376.9,10.687,10.687,0,0,1-2.08.576,16.535,16.535,0,0,1-2.944.224,25.222,25.222,0,0,1-3.488-.224,8.9,8.9,0,0,1-2.752-.8,4.788,4.788,0,0,1-1.824-1.536,4.455,4.455,0,0,1-.64-2.464,3.664,3.664,0,0,1,.544-2.048A4.57,4.57,0,0,1,37.7,23a10.422,10.422,0,0,1,2.752-.9,27.963,27.963,0,0,1,3.776-.512l7.2-.576V20.76a2.293,2.293,0,0,0-.608-1.7,3.521,3.521,0,0,0-1.5-.96,7.048,7.048,0,0,0-1.952-.384q-1.056-.1-1.952-.1-.96,0-1.984.1a6.921,6.921,0,0,0-1.824.352,3.4,3.4,0,0,0-1.344.864,2.325,2.325,0,0,0-.512,1.6h-3.36A5.705,5.705,0,0,1,37,17.784a4.972,4.972,0,0,1,1.76-1.888A8.335,8.335,0,0,1,41.6,14.84a20.637,20.637,0,0,1,3.808-.32,22.181,22.181,0,0,1,4.224.352,8,8,0,0,1,3.04,1.12A5,5,0,0,1,54.5,18.1a7.666,7.666,0,0,1,.608,3.232V31Zm0-5.408v-2.24l-7.2.512a16.443,16.443,0,0,0-1.952.288,6.166,6.166,0,0,0-1.568.48,2.876,2.876,0,0,0-1.024.736,1.662,1.662,0,0,0-.128,1.856,2.008,2.008,0,0,0,.832.608,5.674,5.674,0,0,0,1.5.384,18.045,18.045,0,0,0,2.336.128,17.341,17.341,0,0,0,3.2-.256,10.24,10.24,0,0,0,2.208-.64,3.892,3.892,0,0,0,1.312-.9A1.86,1.86,0,0,0,51.428,25.592Z" fill="#fff"/>
    <path id="Path_213" data-name="Path 213" d="M21.72,21.5q-2.4-.384-4.352-.8a13.489,13.489,0,0,1-3.3-1.184,5.92,5.92,0,0,1-2.144-1.856,5.25,5.25,0,0,1-.736-2.88,6.338,6.338,0,0,1,.672-3.04,5.134,5.134,0,0,1,2.08-2.08A11.1,11.1,0,0,1,17.56,8.5a30.277,30.277,0,0,1,5.184-.384,25.335,25.335,0,0,1,4.96.416A8.807,8.807,0,0,1,31.1,9.816a5.222,5.222,0,0,1,1.92,2.368,9.147,9.147,0,0,1,.608,3.552h-3.68a3.148,3.148,0,0,0-.64-2.08,3.994,3.994,0,0,0-1.7-1.216,8.251,8.251,0,0,0-2.464-.512Q23.768,11.8,22.3,11.8a24.413,24.413,0,0,0-3.36.192,8.169,8.169,0,0,0-2.176.512,2.879,2.879,0,0,0-1.216.864,2.039,2.039,0,0,0-.352,1.184,1.786,1.786,0,0,0,.448,1.216,4.354,4.354,0,0,0,1.408.928,14.044,14.044,0,0,0,2.368.672q1.44.256,3.328.512,2.72.352,4.8.832a12.315,12.315,0,0,1,3.488,1.248,5.368,5.368,0,0,1,2.112,1.952,5.314,5.314,0,0,1,.736,2.912,6.1,6.1,0,0,1-.7,3.04,5.2,5.2,0,0,1-2.08,2.048,10.8,10.8,0,0,1-3.52,1.184,28.274,28.274,0,0,1-4.992.384,26.79,26.79,0,0,1-4.992-.416,10.459,10.459,0,0,1-3.616-1.28,6.03,6.03,0,0,1-2.24-2.336A7.95,7.95,0,0,1,11,23.864h3.68a3.225,3.225,0,0,0,.672,2.144,4.326,4.326,0,0,0,1.792,1.184,10.433,10.433,0,0,0,2.656.544q1.536.128,3.232.128a24.29,24.29,0,0,0,2.976-.16,8.552,8.552,0,0,0,2.144-.512,3.135,3.135,0,0,0,1.28-.864,1.951,1.951,0,0,0,.448-1.28,1.977,1.977,0,0,0-.8-1.664,5.737,5.737,0,0,0-1.984-.96,17.2,17.2,0,0,0-2.624-.544Q23.032,21.688,21.72,21.5Z" fill="#fff"/>
  </g>
</svg>
