<svg xmlns="http://www.w3.org/2000/svg" width="95.544" height="32" viewBox="0 0 95.544 32">
  <g id="_8.2" data-name="8.2" transform="translate(-12 -6)">
    <path id="Path_220" data-name="Path 220" d="M95.768,9.072,97.4,6.48q.864.352,1.824.8a11.567,11.567,0,0,1,1.888,1.12l2.4-1.856,1.472,1.92-1.952,1.5a15.305,15.305,0,0,1,1.76,2.048,13,13,0,0,1,1.44,2.5,15.569,15.569,0,0,1,.96,3.008,16.728,16.728,0,0,1,.352,3.52,12.807,12.807,0,0,1-.576,3.936,8.655,8.655,0,0,1-1.728,3.1,8.057,8.057,0,0,1-2.88,2.016,10.733,10.733,0,0,1-4.064.7,14.509,14.509,0,0,1-4.1-.512,7.671,7.671,0,0,1-2.816-1.472,6.138,6.138,0,0,1-1.664-2.368,8.292,8.292,0,0,1-.544-3.072,6.168,6.168,0,0,1,.8-3.264,6.346,6.346,0,0,1,2.112-2.08,8.966,8.966,0,0,1,2.88-1.088,16.116,16.116,0,0,1,3.168-.32,10.284,10.284,0,0,1,2.624.32,8.12,8.12,0,0,1,2.24.928,8.582,8.582,0,0,0-1.056-3.3,10.39,10.39,0,0,0-1.856-2.368L97.4,14.288l-1.472-1.92,2.4-1.824a9.653,9.653,0,0,0-1.312-.832Q96.376,9.36,95.768,9.072Zm7.744,12.9a8.158,8.158,0,0,0-.9-.64,5.532,5.532,0,0,0-1.184-.544A6.73,6.73,0,0,0,99.96,20.4a10.054,10.054,0,0,0-1.888-.16,9.453,9.453,0,0,0-1.92.192,4.425,4.425,0,0,0-1.568.576A3.039,3.039,0,0,0,93.56,22a2.7,2.7,0,0,0-.384,1.472,4.322,4.322,0,0,0,.224,1.376,3,3,0,0,0,.832,1.184,4.363,4.363,0,0,0,1.536.832,7.566,7.566,0,0,0,2.368.32,5.158,5.158,0,0,0,3.9-1.344A5.883,5.883,0,0,0,103.512,21.968Z" fill="#fff"/>
    <path id="Path_221" data-name="Path 221" d="M87.884,30.32H68.652V27.248l4.192-4.192Q73.9,22,74.7,21.168A8.026,8.026,0,0,0,75.916,19.6a2.81,2.81,0,0,0,.448-1.472,1.444,1.444,0,0,0-.48-1.152,1.482,1.482,0,0,0-1.088-.448,3.468,3.468,0,0,0-1.76.48,11.125,11.125,0,0,0-1.824,1.28l-2.624-3.1a17.1,17.1,0,0,1,1.7-1.312A8.771,8.771,0,0,1,72.4,12.88a9.608,9.608,0,0,1,2.88-.384A6.233,6.233,0,0,1,79.6,13.9a4.615,4.615,0,0,1,1.568,3.648,5.009,5.009,0,0,1-.512,2.272,8.762,8.762,0,0,1-1.472,2.048q-.928,1.024-2.272,2.336l-2.24,2.176v.224H87.884Zm-2.4,4.448H80.812V22h4.7Z" fill="#fff"/>
    <path id="Path_222" data-name="Path 222" d="M57.966,12.528a8.546,8.546,0,0,1,3.2.576,6.541,6.541,0,0,1,2.528,1.664,7.348,7.348,0,0,1,1.664,2.848,12.351,12.351,0,0,1,.576,3.968,13.127,13.127,0,0,1-.832,4.992,6.589,6.589,0,0,1-2.336,3.04,5.846,5.846,0,0,1-3.424,1.024,5.745,5.745,0,0,1-3.072-.736,6.273,6.273,0,0,1-1.888-1.856H54.19q.064.7.128,1.568t.064,1.888V38H49.614V31.5q0-1.024.064-1.888t.128-1.568h-.192A6.273,6.273,0,0,1,47.727,29.9a5.745,5.745,0,0,1-3.072.736A5.994,5.994,0,0,1,41.2,29.616a6.68,6.68,0,0,1-2.3-3.04,13.127,13.127,0,0,1-.832-4.992,11.754,11.754,0,0,1,.608-3.968,7.671,7.671,0,0,1,1.7-2.848,6.82,6.82,0,0,1,2.56-1.664,9.051,9.051,0,0,1,3.264-.576,7.372,7.372,0,0,1,3.456.768,5.759,5.759,0,0,1,2.4,2.176A5.973,5.973,0,0,1,54.479,13.3,7.694,7.694,0,0,1,57.966,12.528Zm-11.68,3.84a2.873,2.873,0,0,0-2.5,1.216,7.084,7.084,0,0,0-.864,4,7.228,7.228,0,0,0,.864,3.936,2.772,2.772,0,0,0,2.4,1.312,3.266,3.266,0,0,0,1.984-.544,3.114,3.114,0,0,0,1.088-1.728,10.143,10.143,0,0,0,.352-2.912,7.36,7.36,0,0,0-.832-4.064A2.775,2.775,0,0,0,46.286,16.368Zm11.424,0a3.328,3.328,0,0,0-1.888.512,3.023,3.023,0,0,0-1.088,1.7,10.841,10.841,0,0,0-.352,3.072,7.859,7.859,0,0,0,.768,3.936,2.913,2.913,0,0,0,2.656,1.248,2.7,2.7,0,0,0,2.368-1.312,7.02,7.02,0,0,0,.9-3.936,7.084,7.084,0,0,0-.864-4A2.873,2.873,0,0,0,57.71,16.368Z" fill="#fff"/>
    <path id="Path_223" data-name="Path 223" d="M25.824,12.752a12.362,12.362,0,0,1,5.12,1.44,7.835,7.835,0,0,1,3.136,3.04,8.559,8.559,0,0,1,1.088,4.352,8.88,8.88,0,0,1-1.056,4.352,7.757,7.757,0,0,1-3.1,3.1,12.621,12.621,0,0,1-5.184,1.408V38H21.408V30.448a13.255,13.255,0,0,1-5.12-1.44,8.532,8.532,0,0,1-3.2-3.072A8.672,8.672,0,0,1,12,21.584a9.485,9.485,0,0,1,.992-4.416A7.557,7.557,0,0,1,16.1,14.1a12.617,12.617,0,0,1,5.312-1.344V6h4.416Zm-4.416,3.584a5.3,5.3,0,0,0-2.4.928,4.633,4.633,0,0,0-1.568,1.824,5.508,5.508,0,0,0-.544,2.5,6.014,6.014,0,0,0,.512,2.528,4.732,4.732,0,0,0,1.536,1.824,5.583,5.583,0,0,0,2.464.9Zm4.416,10.5a5.355,5.355,0,0,0,2.432-.9,4.48,4.48,0,0,0,1.5-1.824,6.014,6.014,0,0,0,.512-2.528,5.508,5.508,0,0,0-.544-2.5,4.732,4.732,0,0,0-1.536-1.824,5.019,5.019,0,0,0-2.368-.864Z" fill="#fff"/>
  </g>
</svg>
