<svg xmlns="http://www.w3.org/2000/svg" width="142.833" height="34.2" viewBox="0 0 142.833 34.2">
  <g id="_9.2" data-name="9.2" transform="translate(-8 -5)">
    <path id="Path_230" data-name="Path 230" d="M150.833,23.324v.612H132.221a6.222,6.222,0,0,0,.648,2.664,4.958,4.958,0,0,0,1.692,1.764,7.864,7.864,0,0,0,2.592.936,17.944,17.944,0,0,0,3.348.288,12.447,12.447,0,0,0,2.772-.288,8.671,8.671,0,0,0,2.232-.792,4.885,4.885,0,0,0,1.44-1.188,2.336,2.336,0,0,0,.54-1.476l3.132.036a5.653,5.653,0,0,1-2.592,4.824q-2.556,1.836-7.56,1.836-5.976,0-8.928-2.412-2.916-2.448-2.916-7.164a8.8,8.8,0,0,1,2.844-7.056q2.844-2.448,8.208-2.448a17.434,17.434,0,0,1,5.112.648,8.256,8.256,0,0,1,3.456,1.872,7.118,7.118,0,0,1,1.944,3.1A12.745,12.745,0,0,1,150.833,23.324Zm-18.5-1.8h15.084a5.134,5.134,0,0,0-.72-2.376,4.549,4.549,0,0,0-1.584-1.584,6.962,6.962,0,0,0-2.34-.864,13.806,13.806,0,0,0-2.916-.288,11.688,11.688,0,0,0-2.772.324,7.473,7.473,0,0,0-2.34.936,5.222,5.222,0,0,0-1.656,1.584A4.722,4.722,0,0,0,132.329,21.524Z" fill="#fff"/>
    <path id="Path_231" data-name="Path 231" d="M125.728,32H122.38V5h3.348Z" fill="#fff"/>
    <path id="Path_232" data-name="Path 232" d="M100.626,39.2H97.278V14h3.348v2.7a5.761,5.761,0,0,1,2.844-2.376,13.854,13.854,0,0,1,5.472-.864,14.213,14.213,0,0,1,4.284.612,8.9,8.9,0,0,1,3.312,1.836A7.8,7.8,0,0,1,118.7,18.9a9.937,9.937,0,0,1,.792,4.1,9.138,9.138,0,0,1-.9,4.14,8.941,8.941,0,0,1-2.34,2.988,10.35,10.35,0,0,1-3.42,1.8,13.588,13.588,0,0,1-4.1.612,12.226,12.226,0,0,1-5.292-.936,6.227,6.227,0,0,1-2.808-2.556Zm15.3-16.236a5.95,5.95,0,0,0-1.8-4.716q-1.764-1.62-5.76-1.62-4.068,0-5.9,1.62a5.956,5.956,0,0,0-1.836,4.716,6.116,6.116,0,0,0,1.836,4.788q1.836,1.62,5.9,1.62a11.383,11.383,0,0,0,3.1-.4,6.95,6.95,0,0,0,2.376-1.224,5.545,5.545,0,0,0,1.548-2.016A6.8,6.8,0,0,0,115.926,22.964Z" fill="#fff"/>
    <path id="Path_233" data-name="Path 233" d="M78.8,32H75.416V21.164a5.549,5.549,0,0,0-.252-1.692,2.988,2.988,0,0,0-.864-1.44,4.023,4.023,0,0,0-1.728-1.008,8.174,8.174,0,0,0-2.772-.4A6.356,6.356,0,0,0,65.3,18.1a6.048,6.048,0,0,0-1.764,4.284V32H60.188V14h3.348v2.628a7.52,7.52,0,0,1,2.916-2.3,11.592,11.592,0,0,1,8.784,0A5.952,5.952,0,0,1,77.828,16.7a6.889,6.889,0,0,1,1.116-1.26,7.446,7.446,0,0,1,1.584-1.008,8.908,8.908,0,0,1,2.088-.72,12.688,12.688,0,0,1,2.628-.252,13.7,13.7,0,0,1,3.96.5,6.332,6.332,0,0,1,2.736,1.512A5.911,5.911,0,0,1,93.524,18.1a12.537,12.537,0,0,1,.5,3.78V32H90.68V22.1a8.929,8.929,0,0,0-.252-2.232,3.979,3.979,0,0,0-.9-1.728A3.932,3.932,0,0,0,87.8,17.024a8.174,8.174,0,0,0-2.772-.4,8.44,8.44,0,0,0-2.736.4,5.732,5.732,0,0,0-1.944,1.008,3.987,3.987,0,0,0-1.188,1.44,4.205,4.205,0,0,0-.36,1.692Z" fill="#fff"/>
    <path id="Path_234" data-name="Path 234" d="M53.565,32V29.264a4.486,4.486,0,0,1-.936,1.332,4.664,4.664,0,0,1-1.584,1.044,12.8,12.8,0,0,1-2.448.648,20.636,20.636,0,0,1-3.492.252,30.063,30.063,0,0,1-4.068-.252,10.487,10.487,0,0,1-3.168-.9A5.525,5.525,0,0,1,35.817,29.7,4.765,4.765,0,0,1,35.1,27a4.054,4.054,0,0,1,.612-2.268,5.161,5.161,0,0,1,1.944-1.656,12.186,12.186,0,0,1,3.24-1.08,34.251,34.251,0,0,1,4.536-.648l8.136-.684v-.216a3.2,3.2,0,0,0-.72-2.232,4.432,4.432,0,0,0-1.836-1.188,7.474,7.474,0,0,0-2.376-.5q-1.3-.108-2.412-.108-1.188,0-2.448.108a7.317,7.317,0,0,0-2.268.468,3.7,3.7,0,0,0-1.656,1.152,3.106,3.106,0,0,0-.648,2.088H36.069a6.336,6.336,0,0,1,.684-3.06,5.887,5.887,0,0,1,2.016-2.124,9.362,9.362,0,0,1,3.168-1.188,20.628,20.628,0,0,1,4.248-.4,22.722,22.722,0,0,1,4.716.432,9.043,9.043,0,0,1,3.348,1.3,5.245,5.245,0,0,1,2.016,2.268,7.757,7.757,0,0,1,.684,3.42V32Zm0-5.976v-3.06l-8.352.648a19.9,19.9,0,0,0-2.52.36,9.336,9.336,0,0,0-2.088.612,4.335,4.335,0,0,0-1.44.972,1.932,1.932,0,0,0-.54,1.368,2.209,2.209,0,0,0,.288,1.116,2.4,2.4,0,0,0,1.008.828,9.2,9.2,0,0,0,1.98.54,23.05,23.05,0,0,0,3.168.18,19.781,19.781,0,0,0,3.888-.324,9.788,9.788,0,0,0,2.592-.9,4.509,4.509,0,0,0,1.476-1.152A2.709,2.709,0,0,0,53.565,26.024Z" fill="#fff"/>
    <path id="Path_235" data-name="Path 235" d="M20.1,20.912q-2.664-.432-4.86-.936a16.28,16.28,0,0,1-3.708-1.3,6.363,6.363,0,0,1-2.412-2.052,5.725,5.725,0,0,1-.828-3.2,6.733,6.733,0,0,1,.72-3.24,5.694,5.694,0,0,1,2.34-2.232,12.636,12.636,0,0,1,4-1.26A33.172,33.172,0,0,1,21.1,6.26a27.5,27.5,0,0,1,5.472.468,9.222,9.222,0,0,1,3.708,1.44,5.727,5.727,0,0,1,2.088,2.664,10.8,10.8,0,0,1,.648,4H29.672a4.461,4.461,0,0,0-.756-2.736,4.26,4.26,0,0,0-1.98-1.548,8.995,8.995,0,0,0-2.844-.684,29.975,29.975,0,0,0-3.312-.18,29.652,29.652,0,0,0-4.248.252,9.852,9.852,0,0,0-2.736.684,3.261,3.261,0,0,0-1.44,1.152,2.662,2.662,0,0,0-.432,1.512A2.435,2.435,0,0,0,12.5,14.9a4.919,4.919,0,0,0,1.728,1.152,15.049,15.049,0,0,0,2.808.864q1.656.36,3.78.648,3.1.4,5.436.936a14.029,14.029,0,0,1,3.888,1.44,6.142,6.142,0,0,1,2.376,2.16,5.852,5.852,0,0,1,.792,3.168,6.967,6.967,0,0,1-.756,3.348,5.743,5.743,0,0,1-2.3,2.232,11.711,11.711,0,0,1-3.852,1.26,30.1,30.1,0,0,1-5.472.432,29.332,29.332,0,0,1-5.544-.468,11.766,11.766,0,0,1-4.068-1.44A6.862,6.862,0,0,1,8.828,28,8.945,8.945,0,0,1,8,23.972h3.348a4.535,4.535,0,0,0,.792,2.808,4.891,4.891,0,0,0,2.16,1.584,11.835,11.835,0,0,0,3.168.72q1.8.144,3.816.144a26.678,26.678,0,0,0,3.636-.216,9.639,9.639,0,0,0,2.592-.684A3.773,3.773,0,0,0,29.1,27.176a2.741,2.741,0,0,0,.54-1.692,2.677,2.677,0,0,0-.972-2.2,6.535,6.535,0,0,0-2.376-1.224,16.328,16.328,0,0,0-3.1-.684Q21.536,21.164,20.1,20.912Z" fill="#fff"/>
  </g>
</svg>
